<?xml version="1.0" encoding="UTF-8"?>
<svg version="1.1" xmlns="http://www.w3.org/2000/svg" width="512" height="512">
<path d="M0 0 C3.54099526 2.81089315 6.79894702 5.80992833 10 9 C10.63808594 9.61488281 11.27617187 10.22976562 11.93359375 10.86328125 C22.74574737 22.10888423 27.60348315 37.87199453 27.5 53.1875 C27.49427979 54.18491211 27.48855957 55.18232422 27.48266602 56.20996094 C26.93676955 79.06776725 14.38780432 93.69019285 -1.15234375 109.28515625 C-3.60797194 111.56426994 -4.54680117 111.98071494 -7.9375 112.125 C-11 112 -11 112 -14 111 C-16.56197359 113.27007476 -19.06515995 115.59666291 -21.5625 117.9375 C-22.28630859 118.57751953 -23.01011719 119.21753906 -23.75585938 119.87695312 C-25.8131774 121.83676793 -27.51471536 123.57375537 -29 126 C-28.99536658 128.35223059 -28.55223608 130.38491285 -28.07187676 132.68118578 C-28 135 -28 135 -28.9922998 136.69644588 C-29.52299268 137.26034355 -30.05368556 137.82424123 -30.60046005 138.40522671 C-31.25175998 139.10257014 -31.90305991 139.79991358 -32.5740962 140.51838863 C-33.37464446 141.33732038 -34.17519271 142.15625213 -35 143 C-35.46126748 143.4742203 -35.92253496 143.94844061 -36.39778024 144.43703122 C-40.51801622 148.66447353 -44.69073609 152.83878615 -48.86529541 157.01246643 C-50.28675888 158.43723308 -51.70801045 159.86221116 -53.12906909 161.28738159 C-57.02330397 165.19159202 -60.92064577 169.09268783 -64.81854129 172.9932431 C-69.02627604 177.20489385 -73.23117727 181.41937211 -77.43650818 185.63342285 C-87.10456396 195.32026933 -96.77690492 205.00283168 -106.45013505 214.68451041 C-111.23339835 219.4719869 -116.01615746 224.25996694 -120.79890189 229.04796177 C-137.18112277 245.44806395 -153.5647862 261.84672376 -169.95222855 278.24160862 C-170.97981785 279.26967268 -172.00740659 280.29773731 -173.03499477 281.3258025 C-173.5445628 281.83560691 -174.05413083 282.34541132 -174.57914031 282.87066434 C-177.16067679 285.45340197 -179.74220611 288.03614675 -182.32373047 290.61889648 C-182.83603264 291.13143881 -183.34833482 291.64398114 -183.8761613 292.17205505 C-200.49231529 308.79610487 -217.10067824 325.42791009 -233.70452731 342.06424927 C-251.27319482 359.66723186 -268.84916171 377.26289422 -286.43334937 394.85037369 C-288.3643039 396.78174573 -290.2952274 398.71314879 -292.22612762 400.64457512 C-292.70154738 401.12011807 -293.17696714 401.59566102 -293.66679356 402.08561437 C-301.30807175 409.72922186 -308.9426717 417.37946604 -316.57485964 425.03214898 C-324.24803114 432.72559811 -331.92875763 440.4114401 -339.6166552 448.09017391 C-343.77900573 452.24797836 -347.93806275 456.40894168 -352.0884304 460.57871056 C-355.89077625 464.39867692 -359.70230493 468.20922748 -363.5212321 472.01261496 C-364.89819035 473.38719559 -366.27180137 474.76513956 -367.64162186 476.14683337 C-376.51249034 485.08978679 -385.23902211 493.02085934 -397.125 497.8125 C-398.03507812 498.19019531 -398.94515625 498.56789063 -399.8828125 498.95703125 C-416.6547083 504.5686806 -435.24293401 503.50178163 -451.1875 495.875 C-457.72703913 492.42357657 -462.86360165 488.28420838 -468 483 C-468.63421875 482.38640625 -469.2684375 481.7728125 -469.921875 481.140625 C-480.75517846 469.92384177 -485.60338493 454.11347032 -485.5 438.8125 C-485.49141968 437.31638184 -485.49141968 437.31638184 -485.48266602 435.79003906 C-484.89215967 411.06432559 -469.9448888 395.79027167 -453.3125 379.0625 C-452.40177734 378.13115234 -451.49105469 377.19980469 -450.55273438 376.24023438 C-449.66521484 375.34755859 -448.77769531 374.45488281 -447.86328125 373.53515625 C-447.07219971 372.734729 -446.28111816 371.93430176 -445.46606445 371.10961914 C-441.58058798 367.78575 -438.07941677 365.6692309 -432.90625 366.02734375 C-426.09184812 365.44280298 -421.64215328 359.86591721 -417.12207031 355.2199707 C-415.50443715 353.56703398 -413.84650853 351.96447561 -412.1796875 350.36132812 C-405.6021302 344.06675538 -405.6021302 344.06675538 -403.03125 335.58984375 C-403.08861328 334.84468506 -403.14597656 334.09952637 -403.20507812 333.33178711 C-402.65398806 327.06576185 -396.49880118 322.19175273 -392.2578125 317.95703125 C-391.61182098 317.30675461 -390.96582947 316.65647797 -390.30026245 315.98649597 C-388.93953494 314.62005146 -387.57621435 313.25618479 -386.21044922 311.89477539 C-384.1296725 309.81716539 -382.06259488 307.72656383 -379.99609375 305.63476562 C-378.66747792 304.30387714 -377.3380768 302.97377204 -376.0078125 301.64453125 C-375.39511505 301.02262405 -374.7824176 300.40071686 -374.15115356 299.75996399 C-366.49839199 292.18837185 -366.49839199 292.18837185 -360.88256836 291.88598633 C-359.90235718 291.95209106 -359.90235718 291.95209106 -358.90234375 292.01953125 C-352.11392661 291.43449467 -347.69043422 285.95218977 -343.17700195 281.32983398 C-341.57170571 279.69686441 -339.92438455 278.11758796 -338.26757812 276.53710938 C-332.31403512 270.66718322 -329.20142434 266.27779001 -328.45263672 257.70507812 C-327.6353315 252.82064348 -324.47347983 250.30572863 -321 247 C-320.02558959 246.00327062 -319.05571875 245.00209188 -318.08935547 243.99755859 C-315.31734145 241.12215598 -312.51252318 238.28176979 -309.69311523 235.45288086 C-307.93073022 233.68069256 -306.17930446 231.89810433 -304.42773438 230.11523438 C-303.29493002 228.97590671 -302.16148852 227.83721211 -301.02734375 226.69921875 C-300.51155258 226.17108078 -299.99576141 225.64294281 -299.46434021 225.09880066 C-295.88056571 221.5366451 -292.13315012 218.1687053 -286.88256836 217.88598633 C-285.90235718 217.95209106 -285.90235718 217.95209106 -284.90234375 218.01953125 C-278.11392661 217.43449467 -273.69043422 211.95218977 -269.17700195 207.32983398 C-267.57170571 205.69686441 -265.92438455 204.11758796 -264.26757812 202.53710938 C-258.31637815 196.66951894 -255.31028831 192.39343902 -254.58666992 183.83911133 C-253.4255058 178.21981146 -249.00527123 174.84208291 -245 171 C-243.99620388 169.97438584 -242.99703538 168.94422702 -242.00195312 167.91015625 C-239.33171475 165.13883695 -236.63095101 162.40035211 -233.91455078 159.67431641 C-232.2313822 157.98127297 -230.55917565 156.27783642 -228.88671875 154.57421875 C-227.80534382 153.48632638 -226.72333574 152.39906292 -225.640625 151.3125 C-225.14782043 150.80734863 -224.65501587 150.30219727 -224.14727783 149.78173828 C-220.81259764 146.46830172 -217.82904541 144.0229114 -212.98022461 143.98364258 C-211.98261108 144.03234497 -211.98261108 144.03234497 -210.96484375 144.08203125 C-204.14744019 143.42219136 -199.72100757 137.98350096 -195.17700195 133.32983398 C-193.57170571 131.69686441 -191.92438455 130.11758796 -190.26757812 128.53710938 C-184.31690546 122.67003885 -181.30854134 118.39378828 -180.58764648 109.83935547 C-179.42554539 104.22438426 -174.99324904 100.84888877 -171 97 C-170.01686682 95.98047758 -169.03920062 94.95566155 -168.06640625 93.92626953 C-165.45348443 91.16243003 -162.80378546 88.43840232 -160.13427734 85.72924805 C-159.03847683 84.61167558 -157.94899676 83.48787293 -156.86572266 82.3581543 C-144.92274442 69.91172918 -144.92274442 69.91172918 -137 69 C-136.20875732 69.08419189 -135.41751465 69.16838379 -134.60229492 69.25512695 C-130.83195269 68.88548556 -128.91435999 66.72505246 -126.33203125 64.171875 C-125.81114426 63.66763 -125.29025726 63.16338501 -124.75358582 62.64385986 C-123.65542898 61.57099289 -122.56394338 60.49126077 -121.47875977 59.40527344 C-119.83243975 57.76980828 -118.15060398 56.17850228 -116.46289062 54.5859375 C-110.55474154 48.83054655 -106.7151851 44.25204813 -106.35791016 35.62231445 C-105.69387905 30.75713159 -102.12891265 27.92309416 -98.70263672 24.65722656 C-96.60699916 22.61748069 -94.59031868 20.50934973 -92.56640625 18.3984375 C-90.9205873 16.70184694 -89.27343463 15.00654924 -87.625 13.3125 C-86.84713135 12.50417725 -86.0692627 11.69585449 -85.26782227 10.86303711 C-78.16804481 3.69992796 -70.27922598 -2.02133768 -60.875 -5.8125 C-59.96492188 -6.19019531 -59.05484375 -6.56789063 -58.1171875 -6.95703125 C-39.04567191 -13.33810226 -16.75770016 -11.53850805 0 0 Z " fill="#EEA245" transform="translate(485,10)"/>
<path d="M0 0 C3.54099526 2.81089315 6.79894702 5.80992833 10 9 C10.63808594 9.61488281 11.27617187 10.22976562 11.93359375 10.86328125 C22.74574737 22.10888423 27.60348315 37.87199453 27.5 53.1875 C27.49427979 54.18491211 27.48855957 55.18232422 27.48266602 56.20996094 C26.93676955 79.06776725 14.38780432 93.69019285 -1.15234375 109.28515625 C-3.53543317 111.49694538 -4.61248579 111.95787889 -7.875 112.3125 C-11 112 -11 112 -13.3125 110.375 C-15.51656004 107.27298957 -16.22186521 105.84566357 -16 102 C-13.53231398 98.21202338 -10.23102975 95.19023539 -6.99609375 92.0625 C4.68000592 80.72914299 10.70579286 69.21695038 11.3125 52.875 C11.18183405 40.2294393 6.34602193 28.51347775 -2.25 19.25 C-12.95133133 9.3197253 -26.04531899 5.23471208 -40.4921875 5.6796875 C-45.34685755 6.12298699 -49.50459521 7.14270797 -54 9 C-55.19302734 9.45826172 -55.19302734 9.45826172 -56.41015625 9.92578125 C-64.25799066 13.34599434 -69.99023594 19.08198806 -76 25 C-76.65887207 25.6398584 -77.31774414 26.2797168 -77.99658203 26.93896484 C-80.08907989 28.97213555 -82.17164169 31.01488299 -84.25 33.0625 C-84.91862061 33.71782715 -85.58724121 34.3731543 -86.27612305 35.04833984 C-87.19905151 35.96993896 -87.19905151 35.96993896 -88.140625 36.91015625 C-88.69266602 37.45808838 -89.24470703 38.00602051 -89.81347656 38.57055664 C-91.21289889 39.9468652 -91.21289889 39.9468652 -91 42 C-89.97261719 42.42410156 -88.94523437 42.84820312 -87.88671875 43.28515625 C-77.47291609 47.66255606 -67.56346916 52.46650136 -59 60 C-57.8125 63.3125 -57.8125 63.3125 -58 67 C-64.79705402 78.47002865 -80.77861132 84.4354283 -93 88 C-93.825 88.24492188 -94.65 88.48984375 -95.5 88.7421875 C-107.48269496 91.69737916 -119.60867418 90.79393173 -131.14453125 86.77734375 C-134.15891986 85.95673727 -135.1376668 85.98831026 -138 87 C-140.20466876 88.92477201 -142.24958241 90.85321905 -144.296875 92.93359375 C-144.89050842 93.52672867 -145.48414185 94.11986359 -146.09576416 94.73097229 C-147.34658502 95.98413069 -148.59372111 97.24097635 -149.83740234 98.5012207 C-151.74808333 100.43555959 -153.67180197 102.35617044 -155.59765625 104.27539062 C-156.81069135 105.4940003 -158.02295804 106.71337547 -159.234375 107.93359375 C-159.81241882 108.51072617 -160.39046265 109.08785858 -160.98602295 109.68247986 C-164.00889071 112.35041415 -164.00889071 112.35041415 -165 116 C-163.97261719 116.42410156 -162.94523437 116.84820312 -161.88671875 117.28515625 C-151.34527843 121.71493291 -140.71686981 126.25421422 -133 135 C-132.67 135.33 -132.34 135.66 -132 136 C-131.92734688 139.6326558 -132.09529465 141.84312103 -134.359375 144.73828125 C-149.73538419 159.03008466 -169.65721092 164.52859974 -190.16796875 164.3046875 C-195.67522871 164.09449501 -200.28668961 162.77034314 -205.43359375 160.77734375 C-208.28451389 159.91382304 -209.2468066 160.03557653 -212 161 C-214.20466876 162.92477201 -216.24958241 164.85321905 -218.296875 166.93359375 C-219.18732513 167.82329613 -219.18732513 167.82329613 -220.09576416 168.73097229 C-221.34658502 169.98413069 -222.59372111 171.24097635 -223.83740234 172.5012207 C-225.74808333 174.43555959 -227.67180197 176.35617044 -229.59765625 178.27539062 C-230.81069135 179.4940003 -232.02295804 180.71337547 -233.234375 181.93359375 C-233.81241882 182.51072617 -234.39046265 183.08785858 -234.98602295 183.68247986 C-238.00889071 186.35041415 -238.00889071 186.35041415 -239 190 C-237.24236328 190.72703125 -237.24236328 190.72703125 -235.44921875 191.46875 C-213.18008293 200.88629402 -213.18008293 200.88629402 -206 211 C-205.6875 213.8125 -205.6875 213.8125 -207 217 C-216.61156064 228.58686884 -234.38695765 236.12786646 -249 238 C-259.61309231 238.66468623 -269.83100374 239.09132436 -279.72265625 234.77734375 C-282.40298075 233.86244739 -283.36410939 234.08227826 -286 235 C-288.20466295 236.94862692 -290.24979844 238.90121637 -292.296875 241.00390625 C-292.89050842 241.60178452 -293.48414185 242.19966278 -294.09576416 242.81565857 C-295.98767195 244.72434102 -297.86887499 246.6431954 -299.75 248.5625 C-301.03186002 249.85940836 -302.3144043 251.15564078 -303.59765625 252.45117188 C-306.73976072 255.62632957 -309.87230539 258.81064946 -313 262 C-312.67 262.99 -312.34 263.98 -312 265 C-309.3548071 266.23072896 -309.3548071 266.23072896 -306.125 267.25 C-299.41601303 269.699663 -293.7933569 272.84870923 -288 277 C-286.90945313 277.77730469 -286.90945313 277.77730469 -285.796875 278.5703125 C-282.84365629 280.86325873 -281.22883794 282.4878389 -279.6875 285.9375 C-280.16790259 290.64544543 -282.53664725 293.05615016 -286 296 C-293.82011886 301.56758462 -302.05151077 305.60483791 -311 309 C-312.22203125 309.52980469 -312.22203125 309.52980469 -313.46875 310.0703125 C-326.60760927 314.89600464 -344.10411155 312.88987565 -356.95429993 308.30230713 C-357.96692146 308.1526651 -357.96692146 308.1526651 -359 308 C-361.37112004 309.89874321 -363.38060433 311.75233781 -365.48046875 313.921875 C-366.09392654 314.53766418 -366.70738434 315.15345337 -367.33943176 315.78790283 C-368.63543107 317.09365348 -369.925386 318.40542682 -371.2097168 319.72265625 C-373.17793251 321.74019276 -375.16411434 323.73852804 -377.15429688 325.734375 C-378.4099543 327.00412135 -379.66454809 328.2749206 -380.91796875 329.546875 C-381.51272507 330.14699402 -382.10748138 330.74711304 -382.72026062 331.36541748 C-386.0196918 334.75532523 -386.0196918 334.75532523 -388 339 C-387.42894531 339.13535156 -386.85789062 339.27070313 -386.26953125 339.41015625 C-375.18388358 342.35340452 -362.67120295 348.23056927 -355 357 C-354.05078125 359.9921875 -354.05078125 359.9921875 -354 363 C-357.05509969 368.72701739 -363.08070229 373.45982894 -369 376 C-372.75 376.625 -372.75 376.625 -376 376 C-378.96135546 373.41830549 -379.86756104 371.81118865 -380.5 367.9375 C-379.89632752 364.39092417 -378.7479865 363.23273903 -376 361 C-377.56119422 360.20576139 -379.12401964 359.41472877 -380.6875 358.625 C-381.99267578 357.96371094 -381.99267578 357.96371094 -383.32421875 357.2890625 C-387.91104507 354.78067488 -387.91104507 354.78067488 -392.92382812 354.24487305 C-395.4669975 355.16985222 -396.74146979 356.38387838 -398.63671875 358.30859375 C-399.29607422 358.97310547 -399.95542969 359.63761719 -400.63476562 360.32226562 C-401.31216797 361.02029297 -401.98957031 361.71832031 -402.6875 362.4375 C-403.37650391 363.13166016 -404.06550781 363.82582031 -404.77539062 364.54101562 C-408.30890216 367.95854172 -408.30890216 367.95854172 -411 372 C-409.7625 371.9175 -408.525 371.835 -407.25 371.75 C-404.1489408 371.76099666 -403.18587609 371.87918054 -400.5 373.625 C-398.54437518 376.72140596 -398.39975523 378.39853135 -399 382 C-400.4375 384.375 -400.4375 384.375 -403 386 C-409.81280121 386.76918723 -415.8591557 385.29258003 -422.47265625 383.65625 C-430.13031242 382.18580466 -430.13031242 382.18580466 -436.984375 384.99682617 C-437.89703125 385.91955322 -438.8096875 386.84228027 -439.75 387.79296875 C-440.50361816 388.54577873 -440.50361816 388.54577873 -441.27246094 389.313797 C-442.33061836 390.37963042 -443.37901087 391.45523762 -444.41796875 392.53979492 C-445.97398823 394.16040842 -447.5608707 395.74440081 -449.15625 397.32617188 C-460.19350718 408.46406059 -468.91085345 420.63877774 -469.375 436.8125 C-469.00473492 451.6231033 -464.6895973 462.87235337 -454.578125 473.63671875 C-444.62999329 482.75583948 -432.37157493 486.69953429 -419.00390625 486.28125 C-396.85399697 484.20739634 -383.57693396 468.73814039 -368.82295227 453.89610291 C-367.40473304 452.47330058 -365.98627744 451.05073384 -364.56760758 449.62838084 C-361.4977053 446.5495344 -358.42942136 443.46908746 -355.3623867 440.38738441 C-350.37125842 435.37243124 -345.37654612 430.36105729 -340.38134766 425.35015869 C-334.06933166 419.01784667 -327.75818568 412.68466978 -321.44804599 406.35048801 C-309.54322161 394.40052197 -297.63174953 382.45720453 -285.71703081 370.51710415 C-284.25711262 369.05407081 -282.79721379 367.59101814 -281.3373212 366.12795924 C-276.90197421 361.68299688 -272.46657979 357.23808186 -268.03113636 352.79321573 C-257.38178297 342.12123433 -246.73278464 331.44889885 -236.0847168 320.77563477 C-235.57572993 320.2654497 -235.06674306 319.75526463 -234.54233235 319.22961941 C-218.01367358 302.66190367 -201.49514463 286.08412779 -184.98124728 269.50169981 C-167.99189737 252.44197439 -150.99100754 235.39382868 -133.97600241 218.35968948 C-131.57493991 215.95590968 -129.17401732 213.55199017 -126.77318382 211.14798164 C-126.30070017 210.67487953 -125.82821652 210.20177742 -125.34141519 209.71433888 C-118.20439047 202.5673046 -111.07773064 195.41004146 -103.95665932 188.24711418 C-95.86495146 180.10795484 -87.76183274 171.98038867 -79.64313928 163.86814284 C-75.49963136 159.72714204 -71.36212732 155.58056116 -67.23962212 151.41864204 C-63.4691819 147.61239233 -59.68309899 143.82248184 -55.88367488 140.0451699 C-54.50893789 138.67270649 -53.14016414 137.29423976 -51.77789942 135.90939593 C-49.93099332 134.03359842 -48.06396999 132.18048262 -46.1901598 130.33161831 C-45.66111688 129.78390045 -45.13207397 129.23618259 -44.58699945 128.67186722 C-41.7894518 125.96007417 -40.21215889 125.02650319 -36.30061501 124.53786761 C-33 125 -33 125 -30 127.0625 C-28 130 -28 130 -28.02662385 133.28837633 C-29.20612026 137.7859663 -31.33781276 140.17215458 -34.57401848 143.3234787 C-35.16449592 143.9220776 -35.75497337 144.52067649 -36.36334407 145.13741475 C-38.35207495 147.14608878 -40.36154643 149.13262608 -42.37155151 151.11999512 C-43.81365766 152.56758076 -45.25445022 154.01647601 -46.6940366 155.46656752 C-50.65904511 159.45279381 -54.64260372 163.42002178 -58.6294055 167.38443542 C-62.9240011 171.66137746 -67.20131608 175.9555405 -71.4808197 180.24757385 C-79.38540657 188.17006214 -87.30350788 196.07888806 -95.22851194 203.98093845 C-102.55245934 211.28381748 -109.87038843 218.59266342 -117.1824379 225.90745544 C-117.90985181 226.63512145 -117.90985181 226.63512145 -118.65196095 227.37748777 C-120.6205208 229.34675213 -122.58904888 231.31604823 -124.55753165 233.28538963 C-143.03100626 251.76679748 -161.52112719 270.23146818 -180.01932349 288.68812834 C-196.44557926 305.07767329 -212.85926664 321.47969948 -229.26171875 337.89306641 C-230.31419648 338.94623701 -231.36667455 339.99940727 -232.41915296 341.0525772 C-232.93948232 341.57324855 -233.45981168 342.0939199 -233.9959086 342.63036917 C-236.61531369 345.25148141 -239.23474858 347.87256387 -241.85421562 350.4936142 C-242.62942109 351.2692909 -242.62942109 351.2692909 -243.42028727 352.06063784 C-257.13124761 365.77958535 -270.85168156 379.48905091 -284.57512963 393.19550562 C-286.05261059 394.67117254 -287.53009019 396.14684084 -289.0075667 397.62251223 C-289.98766436 398.60140765 -290.96776951 399.58029557 -291.94788222 400.55917593 C-298.77302818 407.3758883 -305.5945338 414.19622451 -312.41355685 421.01906155 C-321.20640201 429.81680027 -330.00597429 438.60773437 -338.81659476 447.38767946 C-343.06387373 451.62048901 -347.30795135 455.85637812 -351.54342842 460.10099983 C-355.42373883 463.98948385 -359.3132159 467.86855017 -363.21010162 471.74042088 C-364.61547203 473.13995239 -366.01752285 474.54282729 -367.41582023 475.94942564 C-376.41619729 484.99835301 -385.07996448 492.95673782 -397.125 497.8125 C-398.03507812 498.19019531 -398.94515625 498.56789063 -399.8828125 498.95703125 C-416.6547083 504.5686806 -435.24293401 503.50178163 -451.1875 495.875 C-457.72703913 492.42357657 -462.86360165 488.28420838 -468 483 C-468.63421875 482.38640625 -469.2684375 481.7728125 -469.921875 481.140625 C-480.75517846 469.92384177 -485.60338493 454.11347032 -485.5 438.8125 C-485.49141968 437.31638184 -485.49141968 437.31638184 -485.48266602 435.79003906 C-484.89215967 411.06432559 -469.9448888 395.79027167 -453.3125 379.0625 C-452.40177734 378.13115234 -451.49105469 377.19980469 -450.55273438 376.24023438 C-449.66521484 375.34755859 -448.77769531 374.45488281 -447.86328125 373.53515625 C-447.07219971 372.734729 -446.28111816 371.93430176 -445.46606445 371.10961914 C-441.58058798 367.78575 -438.07941677 365.6692309 -432.90625 366.02734375 C-426.09184812 365.44280298 -421.64215328 359.86591721 -417.12207031 355.2199707 C-415.50443715 353.56703398 -413.84650853 351.96447561 -412.1796875 350.36132812 C-405.6021302 344.06675538 -405.6021302 344.06675538 -403.03125 335.58984375 C-403.08861328 334.84468506 -403.14597656 334.09952637 -403.20507812 333.33178711 C-402.65398806 327.06576185 -396.49880118 322.19175273 -392.2578125 317.95703125 C-391.61182098 317.30675461 -390.96582947 316.65647797 -390.30026245 315.98649597 C-388.93953494 314.62005146 -387.57621435 313.25618479 -386.21044922 311.89477539 C-384.1296725 309.81716539 -382.06259488 307.72656383 -379.99609375 305.63476562 C-378.66747792 304.30387714 -377.3380768 302.97377204 -376.0078125 301.64453125 C-375.39511505 301.02262405 -374.7824176 300.40071686 -374.15115356 299.75996399 C-366.49839199 292.18837185 -366.49839199 292.18837185 -360.88256836 291.88598633 C-359.90235718 291.95209106 -359.90235718 291.95209106 -358.90234375 292.01953125 C-352.11392661 291.43449467 -347.69043422 285.95218977 -343.17700195 281.32983398 C-341.57170571 279.69686441 -339.92438455 278.11758796 -338.26757812 276.53710938 C-332.31403512 270.66718322 -329.20142434 266.27779001 -328.45263672 257.70507812 C-327.6353315 252.82064348 -324.47347983 250.30572863 -321 247 C-320.02558959 246.00327062 -319.05571875 245.00209188 -318.08935547 243.99755859 C-315.31734145 241.12215598 -312.51252318 238.28176979 -309.69311523 235.45288086 C-307.93073022 233.68069256 -306.17930446 231.89810433 -304.42773438 230.11523438 C-303.29493002 228.97590671 -302.16148852 227.83721211 -301.02734375 226.69921875 C-300.51155258 226.17108078 -299.99576141 225.64294281 -299.46434021 225.09880066 C-295.88056571 221.5366451 -292.13315012 218.1687053 -286.88256836 217.88598633 C-285.90235718 217.95209106 -285.90235718 217.95209106 -284.90234375 218.01953125 C-278.11392661 217.43449467 -273.69043422 211.95218977 -269.17700195 207.32983398 C-267.57170571 205.69686441 -265.92438455 204.11758796 -264.26757812 202.53710938 C-258.31637815 196.66951894 -255.31028831 192.39343902 -254.58666992 183.83911133 C-253.4255058 178.21981146 -249.00527123 174.84208291 -245 171 C-243.99620388 169.97438584 -242.99703538 168.94422702 -242.00195312 167.91015625 C-239.33171475 165.13883695 -236.63095101 162.40035211 -233.91455078 159.67431641 C-232.2313822 157.98127297 -230.55917565 156.27783642 -228.88671875 154.57421875 C-227.80534382 153.48632638 -226.72333574 152.39906292 -225.640625 151.3125 C-225.14782043 150.80734863 -224.65501587 150.30219727 -224.14727783 149.78173828 C-220.81259764 146.46830172 -217.82904541 144.0229114 -212.98022461 143.98364258 C-211.98261108 144.03234497 -211.98261108 144.03234497 -210.96484375 144.08203125 C-204.14744019 143.42219136 -199.72100757 137.98350096 -195.17700195 133.32983398 C-193.57170571 131.69686441 -191.92438455 130.11758796 -190.26757812 128.53710938 C-184.31690546 122.67003885 -181.30854134 118.39378828 -180.58764648 109.83935547 C-179.42554539 104.22438426 -174.99324904 100.84888877 -171 97 C-170.01686682 95.98047758 -169.03920062 94.95566155 -168.06640625 93.92626953 C-165.45348443 91.16243003 -162.80378546 88.43840232 -160.13427734 85.72924805 C-159.03847683 84.61167558 -157.94899676 83.48787293 -156.86572266 82.3581543 C-144.92274442 69.91172918 -144.92274442 69.91172918 -137 69 C-136.20875732 69.08419189 -135.41751465 69.16838379 -134.60229492 69.25512695 C-130.83195269 68.88548556 -128.91435999 66.72505246 -126.33203125 64.171875 C-125.81114426 63.66763 -125.29025726 63.16338501 -124.75358582 62.64385986 C-123.65542898 61.57099289 -122.56394338 60.49126077 -121.47875977 59.40527344 C-119.83243975 57.76980828 -118.15060398 56.17850228 -116.46289062 54.5859375 C-110.55474154 48.83054655 -106.7151851 44.25204813 -106.35791016 35.62231445 C-105.69387905 30.75713159 -102.12891265 27.92309416 -98.70263672 24.65722656 C-96.60699916 22.61748069 -94.59031868 20.50934973 -92.56640625 18.3984375 C-90.9205873 16.70184694 -89.27343463 15.00654924 -87.625 13.3125 C-86.84713135 12.50417725 -86.0692627 11.69585449 -85.26782227 10.86303711 C-78.16804481 3.69992796 -70.27922598 -2.02133768 -60.875 -5.8125 C-59.96492188 -6.19019531 -59.05484375 -6.56789063 -58.1171875 -6.95703125 C-39.04567191 -13.33810226 -16.75770016 -11.53850805 0 0 Z " fill="#010000" transform="translate(485,10)"/>
<path d="M0 0 C10.0656981 6.56526213 17.08497877 15.18169008 21.15234375 26.4609375 C21.39726562 27.12609375 21.6421875 27.79125 21.89453125 28.4765625 C25.71170543 40.92159613 22.94212916 54.18269381 17.15234375 65.4609375 C12.83240398 72.98083266 6.47133203 79.33492984 0.15234375 85.2109375 C-2.16424532 87.49527707 -2.84352986 88.44855832 -3.91015625 91.6484375 C-4.04078 94.78674327 -4.04078 94.78674327 -1.84765625 98.4609375 C-10.26265625 106.8759375 -10.26265625 106.8759375 -18.84765625 115.4609375 C-19.83765625 115.1309375 -20.82765625 114.8009375 -21.84765625 114.4609375 C-26.34540612 113.91051735 -28.22353136 114.01080319 -31.94974929 116.69824374 C-33.03334913 117.75089257 -34.09803366 118.82322513 -35.14713764 119.91025734 C-35.74314938 120.49939055 -36.33916111 121.08852376 -36.95323381 121.69550949 C-38.95565954 123.68336162 -40.93200222 125.69528665 -42.90950012 127.70791626 C-44.35059432 129.14882238 -45.79323329 130.58818491 -47.23728389 132.02612817 C-51.20857538 135.98951043 -55.15765358 139.97440683 -59.10357153 143.96302962 C-63.36023404 148.25807198 -67.63710459 152.53290477 -71.91166687 156.81011963 C-79.31922961 164.22766645 -86.71416605 171.65763148 -94.10068703 179.09611893 C-101.8535798 186.90333218 -109.61454373 194.70238608 -117.38611412 202.49100876 C-117.86940307 202.97535938 -118.35269202 203.45971001 -118.85062608 203.95873792 C-121.3052341 206.4186259 -123.76000876 208.87834751 -126.21486171 211.33799104 C-131.20719321 216.3401573 -136.19838652 221.34345894 -141.18921185 226.34712791 C-141.68886124 226.84806313 -142.18851063 227.34899834 -142.70330091 227.86511341 C-154.59798762 239.79100219 -166.48095502 251.72854956 -178.36254883 263.66748047 C-179.41318865 264.72317889 -180.4638286 265.77887718 -181.51446869 266.83457534 C-183.09283665 268.4205486 -184.6712033 270.00652316 -186.249569 271.59249867 C-187.30322884 272.65123818 -188.35688954 273.70997682 -189.41055111 274.76871459 C-190.46516963 275.82841438 -191.51978582 276.88811649 -192.57439968 277.94782092 C-204.69379322 290.12561452 -216.81693359 302.29967459 -228.94165039 314.47216797 C-229.46081864 314.99338916 -229.9799869 315.51461035 -230.51488752 316.05162612 C-242.37201485 327.95555554 -254.2313882 339.85724031 -266.09572124 351.75398827 C-266.59465024 352.25428444 -267.09357924 352.75458061 -267.60762729 353.27003727 C-272.58936316 358.26536854 -277.57135169 363.26044761 -282.55378555 368.2550827 C-293.2523206 378.98004067 -303.94448793 389.71124693 -314.62413464 400.45501559 C-322.41226115 408.28982907 -330.20710003 416.11791786 -338.00866178 423.93935616 C-342.23381389 428.17584483 -346.45551481 432.41563506 -350.66841507 436.66431046 C-354.52684617 440.55543367 -358.39444475 444.43719641 -362.26944824 448.31181411 C-363.66797096 449.7134998 -365.06308939 451.11859232 -366.45438717 452.52744968 C-379.16853781 465.39555641 -392.0029752 475.35443036 -410.84765625 475.5859375 C-414.94967067 475.55532545 -418.82656486 475.35451336 -422.84765625 474.4609375 C-422.28820312 474.20699219 -421.72875 473.95304687 -421.15234375 473.69140625 C-412.81606765 469.24068257 -406.32813724 462.01187322 -400.0390625 455.11450195 C-393.86404192 448.38237997 -387.42971345 441.92058157 -380.97265625 435.4609375 C-380.16269196 434.64749878 -380.16269196 434.64749878 -379.33636475 433.81762695 C-377.76227272 432.2374943 -376.18449938 430.66113355 -374.60546875 429.0859375 C-373.23092529 427.71308594 -373.23092529 427.71308594 -371.82861328 426.3125 C-369.67688793 424.21129033 -367.44598431 422.23548199 -365.16381836 420.27709961 C-359.87882623 415.68991791 -354.97139821 410.72911493 -350.03125 405.77734375 C-349.00584701 404.75261642 -347.98029579 403.72803739 -346.9546051 402.70359802 C-344.81747562 400.5679332 -342.68214016 398.43049542 -340.5480957 396.29174805 C-337.8328975 393.57085334 -335.11323292 390.8544744 -332.3921957 388.13942051 C-330.2772355 386.02809936 -328.16469418 383.91437075 -326.05284309 381.79994011 C-325.05178962 380.79822659 -324.0500124 379.79723573 -323.04745293 378.7970295 C-321.6391389 377.39129754 -320.23443508 375.98195167 -318.82983398 374.57250977 C-318.03455795 373.77643814 -317.23928192 372.98036652 -316.41990662 372.16017151 C-314.50551501 370.15127261 -312.70772897 368.13425504 -310.91320992 366.02438831 C-305.94906552 360.34048911 -300.57361098 355.0653473 -295.22654724 349.74649048 C-294.04899224 348.57136694 -292.87166592 347.39601421 -291.69454724 346.22045362 C-289.14517365 343.67543766 -286.59420153 341.13203872 -284.04197502 338.5898838 C-279.88840256 334.45269611 -275.73833199 330.31200665 -271.58865356 326.1709137 C-265.56384111 320.15920257 -259.53741447 314.14911361 -253.51009941 308.13991165 C-243.98088161 298.63894238 -234.45747017 289.13216458 -224.93507385 279.62435913 C-221.6744729 276.36888206 -218.41384689 273.11343009 -215.15322208 269.85797691 C-214.33846315 269.04450401 -213.52370421 268.23103111 -212.68425561 267.39290751 C-203.41830617 258.14167935 -194.15147601 248.89133373 -184.8840332 239.64160156 C-184.03724037 238.79642347 -183.19044753 237.95124538 -182.3179943 237.08045582 C-168.58862527 223.37763501 -154.85366139 209.68043346 -141.11708318 195.98484011 C-127.00468111 181.91418579 -112.89995083 167.83587258 -98.80188709 153.75085199 C-90.11053724 145.06809283 -81.41302701 136.39159863 -72.70747996 127.72307359 C-66.74276034 121.78264761 -60.78537237 115.83493449 -54.83368164 109.8814552 C-51.40107864 106.44827501 -47.9653055 103.01843341 -44.52067375 99.59731865 C-41.36439477 96.46245505 -38.21757303 93.31840539 -35.07786167 90.16695122 C-33.94351755 89.03161436 -32.8058069 87.89962844 -31.66432898 86.77146418 C-25.34145234 80.51829139 -19.98372906 74.39574668 -15.84765625 66.4609375 C-15.29335938 65.47867188 -14.7390625 64.49640625 -14.16796875 63.484375 C-8.65657424 51.27285383 -8.37251174 34.73625531 -12.91015625 22.1484375 C-13.82634106 20.2213784 -14.80444673 18.32229864 -15.84765625 16.4609375 C-16.35554688 15.50316406 -16.8634375 14.54539062 -17.38671875 13.55859375 C-21.94734561 5.68016489 -28.37440154 -1.77966444 -36.84765625 -5.5390625 C-24.4094763 -9.30446685 -11.0927273 -5.9952463 0 0 Z " fill="#E98E21" transform="translate(473.84765625,21.5390625)"/>
<path d="M0 0 C12.58097004 3.84692707 12.58097004 3.84692707 16.42724609 8.7421875 C15.76724609 9.0721875 15.10724609 9.4021875 14.42724609 9.7421875 C12.25442041 11.51045704 12.25442041 11.51045704 12.16162109 13.72265625 C12.17583994 15.73106893 12.29582585 17.73802872 12.42724609 19.7421875 C10.22113044 20.56117016 8.0126627 21.37246293 5.80224609 22.1796875 C4.57248047 22.63214844 3.34271484 23.08460938 2.07568359 23.55078125 C-1.16824058 24.61009268 -4.1983754 25.29053992 -7.57275391 25.7421875 C-7.69650391 24.9584375 -7.82025391 24.1746875 -7.94775391 23.3671875 C-9.3019723 20.55117238 -9.3019723 20.55117238 -11.93212891 19.96484375 C-14.47478295 19.47283301 -17.0027837 19.05987754 -19.57275391 18.7421875 C-17.40659732 13.91614254 -13.93202703 10.65746479 -10.26025391 6.9296875 C-9.59574219 6.22392578 -8.93123047 5.51816406 -8.24658203 4.79101562 C-7.59496094 4.12908203 -6.94333984 3.46714844 -6.27197266 2.78515625 C-5.38771606 1.87286255 -5.38771606 1.87286255 -4.4855957 0.94213867 C-2.57275391 -0.2578125 -2.57275391 -0.2578125 0 0 Z " fill="#CA7714" transform="translate(93.57275390625,363.2578125)"/>
<path d="M0 0 C3.34508114 1.28311321 6.65552713 2.61309717 9.9296875 4.06640625 C10.89745117 4.48889648 10.89745117 4.48889648 11.88476562 4.91992188 C13.46417108 5.61018055 15.04095243 6.30643823 16.6171875 7.00390625 C16.6171875 7.66390625 16.6171875 8.32390625 16.6171875 9.00390625 C4.08252815 15.6589058 -5.09579362 18.55974128 -19.3828125 18.00390625 C-15.69454027 13.51816976 -11.82289686 9.2113022 -7.8203125 5.00390625 C-7.13231567 4.24630005 -7.13231567 4.24630005 -6.43041992 3.47338867 C-3.0679832 0.00502948 -3.0679832 0.00502948 0 0 Z " fill="#C87614" transform="translate(167.3828125,288.99609375)"/>
<path d="M0 0 C3.46535934 1.12733842 6.67468803 2.49034783 9.9609375 4.06640625 C11.11335938 4.61425781 12.26578125 5.16210938 13.453125 5.7265625 C14.75636719 6.35884766 14.75636719 6.35884766 16.0859375 7.00390625 C16.0859375 7.66390625 16.0859375 8.32390625 16.0859375 9.00390625 C14.02418386 9.96384425 11.96150281 10.92179049 9.8984375 11.87890625 C8.74988281 12.41257813 7.60132813 12.94625 6.41796875 13.49609375 C-2.60173791 17.57769606 -10.0651362 18.14733722 -19.9140625 18.00390625 C-16.236527 13.53122794 -12.38517398 9.21794044 -8.4140625 5.00390625 C-7.96377686 4.49883545 -7.51349121 3.99376465 -7.04956055 3.47338867 C-4.67783278 1.00930591 -3.47591958 0.00465941 0 0 Z " fill="#C97614" transform="translate(315.9140625,140.99609375)"/>
<path d="M0 0 C3.61712993 1.02154109 6.67150962 2.31278984 9.9921875 4.06640625 C11.56806641 4.88818359 11.56806641 4.88818359 13.17578125 5.7265625 C13.96082031 6.14808594 14.74585938 6.56960937 15.5546875 7.00390625 C15.5546875 7.66390625 15.5546875 8.32390625 15.5546875 9.00390625 C3.88836542 14.90389565 -7.18726492 18.81195881 -20.4453125 18.00390625 C-18.4875156 15.62280191 -16.49331921 13.30693295 -14.4453125 11.00390625 C-13.58679688 10.03066406 -12.72828125 9.05742188 -11.84375 8.0546875 C-10.90051948 7.03582902 -9.95519714 6.01890318 -9.0078125 5.00390625 C-8.12222656 4.03453125 -7.23664063 3.06515625 -6.32421875 2.06640625 C-3.4453125 0.00390625 -3.4453125 0.00390625 0 0 Z " fill="#C97614" transform="translate(390.4453125,66.99609375)"/>
<path d="M0 0 C3.46535934 1.12733842 6.67468803 2.49034783 9.9609375 4.06640625 C11.11335938 4.61425781 12.26578125 5.16210938 13.453125 5.7265625 C14.75636719 6.35884766 14.75636719 6.35884766 16.0859375 7.00390625 C16.0859375 7.66390625 16.0859375 8.32390625 16.0859375 9.00390625 C4.4071435 15.50615372 -6.49946784 18.72974604 -19.9140625 18.00390625 C-16.236527 13.53122794 -12.38517398 9.21794044 -8.4140625 5.00390625 C-7.96377686 4.49883545 -7.51349121 3.99376465 -7.04956055 3.47338867 C-4.67783278 1.00930591 -3.47591958 0.00465941 0 0 Z " fill="#C97614" transform="translate(241.9140625,214.99609375)"/>
</svg>
