<?xml version="1.0" encoding="UTF-8"?>
<svg version="1.1" xmlns="http://www.w3.org/2000/svg" width="512" height="512">
<path d="M0 0 C1.10794922 -0.01583633 2.21589844 -0.03167267 3.35742188 -0.04798889 C4.54916016 -0.04302902 5.74089844 -0.03806915 6.96875 -0.03295898 C8.81049805 -0.04225685 8.81049805 -0.04225685 10.68945312 -0.05174255 C13.28514818 -0.05884583 15.88088874 -0.055658 18.4765625 -0.04296875 C22.45397521 -0.02910424 26.42903609 -0.06317058 30.40625 -0.10131836 C32.92708391 -0.10226952 35.44792077 -0.10041091 37.96875 -0.09545898 C39.16048828 -0.10871719 40.35222656 -0.1219754 41.58007812 -0.13563538 C49.66324056 -0.04419872 49.66324056 -0.04419872 53.3125 2.57275391 C55.85274866 9.07731377 52.97215826 15.70522668 50.74609375 21.97094727 C50.48115616 22.73648926 50.21621857 23.50203125 49.94325256 24.29077148 C49.10494802 26.70763446 48.2558138 29.1205221 47.40625 31.53344727 C46.83195867 33.18293509 46.25838403 34.83267262 45.68554688 36.48266602 C44.28821242 40.50252593 42.88116027 44.51886084 41.46875 48.53344727 C42.4474707 48.50726318 43.42619141 48.4810791 44.43457031 48.45410156 C48.07219505 48.36347482 51.70972046 48.30615451 55.34814453 48.25878906 C56.92155751 48.23367279 58.49485412 48.19957254 60.06787109 48.15625 C62.33199772 48.09546328 64.59458022 48.06721144 66.859375 48.04516602 C67.91115936 48.00645638 67.91115936 48.00645638 68.98419189 47.96696472 C72.51585954 47.96494506 74.22416526 48.33777477 77.00683594 50.56396484 C79.34548777 55.31430255 78.24386844 59.07796767 76.72470093 63.89050293 C75.77196157 66.57201617 74.7472625 69.2158682 73.69921875 71.86157227 C73.1174865 73.36261505 73.1174865 73.36261505 72.52400208 74.89398193 C71.24306894 78.19377414 69.94957973 81.48849639 68.65625 84.78344727 C67.74838614 87.11640615 66.84150169 89.44974638 65.93554688 91.78344727 C64.05246006 96.63194021 62.16516664 101.47876393 60.27490234 106.32446289 C56.38130137 116.31502172 52.53881551 126.32515086 48.69631958 136.33544922 C46.6375363 141.69888035 44.57704151 147.0616527 42.515625 152.42407227 C42.10550674 153.49101318 41.69538849 154.5579541 41.27284241 155.65722656 C38.6630348 162.44198167 36.0412905 169.22201747 33.41174316 175.99914551 C31.610196 180.64359565 29.81277223 185.28963686 28.015625 189.93579102 C27.17065984 192.11692096 26.32375082 194.29729917 25.47460938 196.47680664 C14.39475118 224.89036585 14.39475118 224.89036585 6.15625 254.22094727 C5.91753174 255.24075684 5.67881348 256.26056641 5.43286133 257.3112793 C3.16726436 267.29849545 1.60534158 277.35972825 0.46875 287.53344727 C0.38089422 288.31459082 0.29303844 289.09573437 0.20252037 289.90054893 C-0.58094805 297.59150037 -0.68278033 305.2236954 -0.68896484 312.94995117 C-0.69364505 314.36552586 -0.69879055 315.78109907 -0.70436096 317.19667053 C-0.71555352 320.222712 -0.72402939 323.24874413 -0.73048019 326.27479935 C-0.74125057 331.06689264 -0.76151532 335.85891762 -0.78359985 340.65097046 C-0.84523312 354.26996753 -0.89956238 367.8889578 -0.93261719 381.50805664 C-0.95099354 389.04685437 -0.97995667 396.58553466 -1.0206219 404.124246 C-1.04162055 408.10442231 -1.05713921 412.08445121 -1.05942917 416.06468582 C-1.06158492 419.80608996 -1.0775479 423.54718591 -1.10381889 427.28849602 C-1.1143686 429.30362619 -1.11027427 431.31881666 -1.1056366 433.33396912 C-1.1771882 441.18077375 -1.47085958 448.55493972 -6.40625 454.97094727 C-8.30350682 459.29247669 -6.05366004 463.24259202 -4.53125 467.53344727 C-2.47908137 472.69717495 -0.2528356 477.78435273 1.97265625 482.87524414 C6.25895445 492.89144542 6.25895445 492.89144542 6.46875 498.53344727 C5.33224056 500.90978519 4.32433971 502.67785756 2.46875 504.53344727 C-4.78322646 505.12787157 -4.78322646 505.12787157 -7.45141602 503.00756836 C-10.17397409 499.76887795 -11.43414266 496.4520936 -12.9140625 492.52172852 C-13.36457474 491.36848335 -13.36457474 491.36848335 -13.82418823 490.19194031 C-14.77821909 487.74702079 -15.71833383 485.2970894 -16.65625 482.84594727 C-17.60255786 480.38463461 -18.55190318 477.92467139 -19.50973511 475.46781921 C-20.10444066 473.94141899 -20.69231665 472.41233713 -21.2727356 470.88044739 C-22.53728542 466.99873125 -22.53728542 466.99873125 -25.53125 464.53344727 C-25.51553955 465.77956787 -25.4998291 467.02568848 -25.48364258 468.30957031 C-25.42926927 472.94068924 -25.39487289 477.57178004 -25.36645508 482.203125 C-25.35138535 484.20610298 -25.3309259 486.20904807 -25.30493164 488.21191406 C-25.26846873 491.09391407 -25.25150539 493.97547711 -25.23828125 496.85766602 C-25.22279739 497.75055832 -25.20731354 498.64345062 -25.19136047 499.56340027 C-25.19005513 504.40525798 -25.4110291 507.57754981 -28.53125 511.53344727 C-30.3815699 513.38376716 -32.95597082 512.82484859 -35.42578125 512.95922852 C-38.65814735 512.30555893 -39.58195697 511.21036238 -41.53125 508.53344727 C-42.09646695 505.19396884 -41.99593218 501.89620246 -41.921875 498.51782227 C-41.91621521 497.54685608 -41.91055542 496.57588989 -41.90472412 495.57550049 C-41.88235311 492.47764557 -41.83215473 489.38095193 -41.78125 486.28344727 C-41.76118597 484.18190148 -41.74293503 482.08033755 -41.7265625 479.97875977 C-41.6824858 474.82987557 -41.61345258 469.68185823 -41.53125 464.53344727 C-42.52125 464.53344727 -43.51125 464.53344727 -44.53125 464.53344727 C-44.68400391 465.09362549 -44.83675781 465.65380371 -44.99414062 466.23095703 C-47.16837765 473.85533256 -50.03687479 481.13591939 -53.03125 488.47094727 C-53.76021484 490.29722656 -53.76021484 490.29722656 -54.50390625 492.16040039 C-55.21353516 493.90546875 -55.21353516 493.90546875 -55.9375 495.68579102 C-56.36353516 496.73758545 -56.78957031 497.78937988 -57.22851562 498.87304688 C-58.45645832 501.38071022 -59.29358526 502.89210224 -61.53125 504.53344727 C-68.32370283 505.28816425 -68.32370283 505.28816425 -72.03125 502.97094727 C-74.10945866 499.59385819 -73.83449714 497.47716012 -73.53125 493.53344727 C-72.68137076 490.73780004 -71.50632606 488.12967878 -70.29296875 485.47485352 C-69.63082762 483.93962082 -68.97006118 482.40379462 -68.31054688 480.86743164 C-67.26723018 478.4730432 -66.21375617 476.08492979 -65.13549805 473.70605469 C-60.71828599 465.02137062 -60.71828599 465.02137062 -60.19384766 455.75952148 C-61.48080567 453.73345408 -62.84143119 452.22210925 -64.53125 450.53344727 C-65.56072378 447.44502593 -65.66336924 445.31458301 -65.67601013 442.07739258 C-65.68290863 440.94272049 -65.68980713 439.8080484 -65.69691467 438.63899231 C-65.69952805 437.3924437 -65.70214142 436.14589508 -65.70483398 434.86157227 C-65.71510147 432.8458292 -65.72537092 430.83008614 -65.73571312 428.81434345 C-65.74595129 426.64266079 -65.75380111 424.47098049 -65.76104546 422.29928589 C-65.77656088 417.7465236 -65.80052313 413.19382962 -65.82594299 408.64111328 C-65.89693571 395.69169475 -65.95631049 382.74223369 -66.00805664 369.79272461 C-66.03669752 362.64424087 -66.07227191 355.49582176 -66.11471039 348.34740639 C-66.13675305 344.57783479 -66.15540937 340.80832133 -66.16515923 337.03869629 C-66.2711651 297.61389214 -69.68685661 260.794601 -83.09375 223.51391602 C-83.52990631 222.29764526 -83.96606262 221.08137451 -84.41543579 219.82824707 C-89.0395128 206.98391812 -93.95682515 194.25521599 -98.90625 181.53344727 C-99.86379047 179.06372247 -100.82099147 176.59386955 -101.77758789 174.1237793 C-103.24672125 170.33072748 -104.71601999 166.53774118 -106.18696594 162.74539185 C-109.42944232 154.3850171 -112.65969923 146.02000092 -115.87890625 137.65063477 C-116.51937897 135.98556885 -116.51937897 135.98556885 -117.17279053 134.28686523 C-119.26391307 128.8482912 -121.35241588 123.40872233 -123.43798828 117.96801758 C-126.92474888 108.87677813 -130.41851264 99.78945503 -133.99501038 90.73306274 C-135.42966239 87.09928438 -136.85531255 83.46200403 -138.2805481 79.82452393 C-138.93775213 78.15568945 -139.59977634 76.48874361 -140.26705933 74.82391357 C-141.17449519 72.5597717 -142.06541091 70.28975406 -142.953125 68.01782227 C-143.21764969 67.37134735 -143.48217438 66.72487244 -143.75471497 66.05880737 C-145.5957273 61.27688491 -146.07928417 57.57510128 -145.53125 52.53344727 C-144.02050781 50.0715332 -144.02050781 50.0715332 -141.53125 48.53344727 C-138.79414523 48.11551731 -136.44138895 47.92872516 -133.703125 47.92407227 C-132.95411926 47.90753601 -132.20511353 47.89099976 -131.43341064 47.8739624 C-129.04927346 47.82551217 -126.66577389 47.80411955 -124.28125 47.78344727 C-122.66142631 47.75528486 -121.04163228 47.72535704 -119.421875 47.69360352 C-115.45838586 47.61975483 -111.49525002 47.57016269 -107.53125 47.53344727 C-107.71300781 46.99977539 -107.89476562 46.46610352 -108.08203125 45.91625977 C-108.91092407 43.45933644 -109.72113854 40.99662401 -110.53125 38.53344727 C-110.81742188 37.69426758 -111.10359375 36.85508789 -111.3984375 35.99047852 C-113.14081923 30.63887749 -114.21080173 26.16401872 -113.53125 20.53344727 C-111.48244411 17.86136253 -110.28569296 16.68394054 -106.95117188 16.01878357 C-105.97728516 16.01258499 -105.00339844 16.00638641 -104 16 C-102.89205078 15.98416367 -101.78410156 15.96832733 -100.64257812 15.95201111 C-99.45083984 15.95697098 -98.25910156 15.96193085 -97.03125 15.96704102 C-95.80341797 15.96084244 -94.57558594 15.95464386 -93.31054688 15.94825745 C-90.71485182 15.94115417 -88.11911126 15.944342 -85.5234375 15.95703125 C-81.54602479 15.97089576 -77.57096391 15.93682942 -73.59375 15.89868164 C-71.07291609 15.89773048 -68.55207923 15.89958909 -66.03125 15.90454102 C-64.83951172 15.89128281 -63.64777344 15.8780246 -62.41992188 15.86436462 C-54.34035344 15.95576063 -54.34035344 15.95576063 -50.9909668 18.34716797 C-48.7854368 23.16141316 -47.19704352 28.07525133 -45.67578125 33.14282227 C-45.32867599 34.26537415 -44.98157074 35.38792603 -44.62394714 36.54449463 C-43.5200178 40.1210073 -42.4312831 43.70191838 -41.34375 47.28344727 C-40.24273819 50.87834316 -39.13861229 54.47225018 -38.03141785 58.06524658 C-37.34385425 60.29975032 -36.6604146 62.53552778 -35.98139954 64.77264404 C-35.6740538 65.7774884 -35.36670807 66.78233276 -35.05004883 67.81762695 C-34.78009598 68.70633484 -34.51014313 69.59504272 -34.23200989 70.51068115 C-33.70637841 72.50387785 -33.70637841 72.50387785 -32.53125 73.53344727 C-32.11235504 72.25011505 -32.11235504 72.25011505 -31.68499756 70.94085693 C-29.04939231 62.87365843 -26.40221646 54.81037056 -23.74201584 46.75124741 C-22.37482832 42.60795902 -21.0121396 38.46330318 -19.65966797 34.31518555 C-18.35397443 30.31109961 -17.03654923 26.31105123 -15.71094513 22.31351471 C-15.20759721 20.78870431 -14.70847207 19.26249317 -14.21367645 17.73488617 C-13.51918387 15.59322541 -12.80975829 13.45706529 -12.09667969 11.3215332 C-11.49711456 9.49619049 -11.49711456 9.49619049 -10.88543701 7.63397217 C-8.44185073 2.03917614 -6.12563076 0.03898831 0 0 Z " fill="#010101" transform="translate(289.53125,-0.533447265625)"/>
<path d="M0 0 C10.89 0 21.78 0 33 0 C38.89285714 18.61607143 38.89285714 18.61607143 41 25.5 C45.5778357 40.43919224 50.36727051 55.31386573 55.10888672 70.20166016 C55.99094282 72.97155798 56.87252876 75.74160492 57.75390625 78.51171875 C58.04257568 79.41857422 58.33124512 80.32542969 58.62866211 81.25976562 C59.20737514 83.07973623 59.7850202 84.90004679 60.36157227 86.72070312 C61.8687809 91.47502535 63.3978661 96.22075517 64.9609375 100.95703125 C65.28126953 101.93736328 65.60160156 102.91769531 65.93164062 103.92773438 C66.54044482 105.78943996 67.15585662 107.64900384 67.77929688 109.50585938 C71.21217019 120.06054446 71.49577248 126.56411296 67.1875 136.9375 C66.81818359 137.88173828 66.44886719 138.82597656 66.06835938 139.79882812 C63.32791109 146.67208891 63.32791109 146.67208891 61 149 C59.35 145.7 57.7 142.4 56 139 C51.9899066 138.82135369 51.9899066 138.82135369 48 139 C45.62377214 140.95058614 45.62377214 140.95058614 45.66943359 144.5480957 C45.80431711 149.52975166 47.42393569 153.65982187 49.2890625 158.23046875 C49.62996918 159.10157791 49.97087585 159.97268707 50.32211304 160.87019348 C51.41036836 163.64784433 52.51589114 166.41811665 53.625 169.1875 C58.95139567 182.53939746 63.66356337 195.81674999 67.38523865 209.70991516 C68.33586642 213.25115641 69.32677264 216.78088312 70.3125 220.3125 C71.66413059 225.22285419 72.44380806 229.95021773 73 235 C71.73285156 234.95359375 70.46570313 234.9071875 69.16015625 234.859375 C56.54495231 234.43112261 56.54495231 234.43112261 45 239 C44.01 239.33 43.02 239.66 42 240 C40.41085789 238.41085789 40.47257311 236.53603152 40.08984375 234.34765625 C39.90357422 233.34025391 39.71730469 232.33285156 39.52539062 231.29492188 C39.15152761 229.23929631 38.78599366 227.18212529 38.43164062 225.12304688 C34.45206278 203.93803345 26.60393051 183.61967846 18.75 163.625 C17.87477499 161.37626759 17.00053169 159.12715288 16.12719727 156.87768555 C14.32108008 152.22771652 12.51085264 147.57937987 10.69775391 142.93212891 C8.08457175 136.22668683 5.49657716 129.51177222 2.91796875 122.79296875 C2.50479401 121.71647568 2.09161926 120.6399826 1.66592407 119.53086853 C0.83559681 117.36694752 0.00538598 115.20298183 -0.82470703 113.03897095 C-6.34086618 98.66037317 -11.87850927 84.29072686 -17.48046875 69.9453125 C-18.37300963 67.65651135 -19.26550705 65.36769326 -20.15795898 63.07885742 C-21.85366592 58.7304369 -23.5559847 54.38468272 -25.26196289 50.0402832 C-26.02384261 48.08814795 -26.78549305 46.1359232 -27.546875 44.18359375 C-27.89892502 43.29249908 -28.25097504 42.40140442 -28.61369324 41.48330688 C-28.93034439 40.66824677 -29.24699554 39.85318665 -29.57324219 39.01342773 C-29.98905548 37.95296486 -29.98905548 37.95296486 -30.41326904 36.87107849 C-31 35 -31 35 -31 32 C-20.44 32 -9.88 32 1 32 C2.30453125 35.39410156 3.6090625 38.78820312 4.953125 42.28515625 C7.63686136 49.2675934 10.32163405 56.24962835 13.00952148 63.23046875 C13.92693479 65.61327578 14.84433393 67.99608826 15.76171875 70.37890625 C16.21538315 71.55720001 16.66904755 72.73549377 17.13645935 73.94949341 C19.43737141 79.92857167 21.73224589 85.90982879 24.0118103 91.89707947 C25.11203109 94.78593403 26.21656311 97.67312757 27.32189941 100.56002808 C27.81222484 101.8444148 28.30029556 103.12966475 28.78601074 104.415802 C29.4466888 106.16478324 30.11568103 107.91061722 30.78515625 109.65625 C31.14488525 110.60306641 31.50461426 111.54988281 31.87524414 112.52539062 C33.01914136 115.04211348 34.11257564 116.97757217 36 119 C40.64333973 119.63984471 40.64333973 119.63984471 44.72061157 117.71733093 C46.39252539 115.83366359 46.39252539 115.83366359 45.97021484 112.08520508 C45.04904242 105.9598634 42.7509178 100.36706184 40.4765625 94.63671875 C40.01575287 93.45068558 39.55494324 92.2646524 39.08016968 91.04267883 C37.85439568 87.88833469 36.61570885 84.7392212 35.37414551 81.59106445 C34.15432039 78.49151208 32.94696693 75.38711289 31.73828125 72.28320312 C29.81522 67.34927813 27.88074137 62.420047 25.93847656 57.49365234 C24.17496401 53.01460153 22.43169371 48.52925048 20.71824837 44.03082943 C19.72955774 41.43705375 18.73312663 38.84628372 17.73606491 36.25571632 C17.04048607 34.43905738 16.35587043 32.61821273 15.67153931 30.79728699 C15.24803192 29.69991714 14.82452454 28.6025473 14.38818359 27.47192383 C14.02228119 26.50877762 13.65637878 25.54563141 13.27938843 24.55329895 C11.28095222 20.56498316 9.24299919 18.41433306 5 17 C3.95485926 14.50638252 3.09898584 12.13580564 2.3125 9.5625 C2.08755859 8.86833984 1.86261719 8.17417969 1.63085938 7.45898438 C0 2.33838336 0 2.33838336 0 0 Z " fill="#8BC580" transform="translate(194,31)"/>
<path d="M0 0 C10.56 0 21.12 0 32 0 C31.01 3.63 30.02 7.26 29 11 C28.57618042 12.60210327 28.57618042 12.60210327 28.14379883 14.23657227 C27.40211257 17.0227076 26.6092829 19.7916545 25.8125 22.5625 C25.55919922 23.54541016 25.30589844 24.52832031 25.04492188 25.54101562 C24.23955208 28.26875995 23.49774864 30.58002382 22 33 C19.31495139 34.31654432 17.00562155 34.53967958 14 35 C12.36299697 36.73421952 12.36299697 36.73421952 11.75 39 C11.46125 39.80050781 11.1725 40.60101563 10.875 41.42578125 C10.58625 42.27527344 10.2975 43.12476563 10 44 C9.25284222 45.73039666 8.50286187 47.45957744 7.75 49.1875 C6.28816324 52.92330505 5.21043086 55.95345814 6 60 C7.46041766 62.11670357 7.46041766 62.11670357 10 63 C13.58905085 63.16585191 13.58905085 63.16585191 17 62 C18.8646327 59.98244913 18.8646327 59.98244913 20 57 C21.32 54.03 22.64 51.06 24 48 C34.56 48 45.12 48 56 48 C51.39227328 61.34415908 46.39452164 74.51213833 41.2875061 87.67248535 C39.84196365 91.39763436 38.39934041 95.12390112 36.95776367 98.85058594 C36.46220983 100.13156354 35.96665011 101.41253887 35.47108459 102.69351196 C35.224265 103.33151356 34.97744541 103.96951515 34.72314644 104.62685013 C33.97086984 106.57102301 33.21826692 108.51506926 32.46556091 110.45907593 C24.61594662 130.73339248 16.81428697 151.02622199 9.02661133 171.32440186 C8.36715299 173.04311024 7.7075015 174.76174452 7.04760742 176.48028564 C-0.62576701 196.46394507 -7.74571332 216.22879859 -13 237 C-14.61780808 234.0089919 -15.61044021 231.12732067 -16.48046875 227.84375 C-16.75439453 226.83030518 -17.02832031 225.81686035 -17.31054688 224.77270508 C-17.74463867 223.15271606 -17.74463867 223.15271606 -18.1875 221.5 C-20.68944391 212.2817832 -23.47664325 203.27105325 -26.95385742 194.37109375 C-27.23720947 193.61570313 -27.52056152 192.8603125 -27.8125 192.08203125 C-28.06644531 191.43468018 -28.32039063 190.7873291 -28.58203125 190.12036133 C-29.80776289 183.90220751 -26.50445842 177.61188368 -24.30859375 171.91796875 C-23.93121567 170.92658401 -23.55383759 169.93519928 -23.1650238 168.91377258 C-21.92816885 165.66949033 -20.68306253 162.4284481 -19.4375 159.1875 C-18.58122761 156.94803722 -17.72527344 154.70845274 -16.86962891 152.46875 C-9.96476413 134.41894429 -2.97856837 116.40028901 4.0703125 98.40625 C4.3548378 97.67843826 4.6393631 96.95062653 4.93251038 96.20075989 C6.88228804 91.23542391 6.88228804 91.23542391 8 89 C8.40880566 84.35718285 8.40880566 84.35718285 6.9375 80.0625 C3.75712356 78.3184226 1.5431661 78.44055272 -2 79 C-5.23758024 83.0978782 -7.20191425 87.51403468 -9.015625 92.3671875 C-9.40666412 93.38656906 -9.40666412 93.38656906 -9.80560303 94.42654419 C-10.62735987 96.57345115 -11.43882219 98.72407667 -12.25 100.875 C-12.80921675 102.34140498 -13.36910628 103.80755359 -13.9296875 105.2734375 C-15.29425043 108.84604291 -16.64960224 112.42201761 -18 116 C-20 115 -20 115 -20.96142578 112.70263672 C-22.02660294 109.42992616 -23.08630978 106.15623341 -24.125 102.875 C-24.49753906 101.74578125 -24.87007813 100.6165625 -25.25390625 99.453125 C-25.60582031 98.35226563 -25.95773437 97.25140625 -26.3203125 96.1171875 C-26.64273926 95.11284668 -26.96516602 94.10850586 -27.29736328 93.07373047 C-28.82346234 86.39770994 -27.70295734 81.09466008 -25.53735352 74.80151367 C-25.14474335 73.61974045 -25.14474335 73.61974045 -24.74420166 72.41409302 C-23.88243783 69.82858109 -23.00587618 67.24835845 -22.12890625 64.66796875 C-21.52508029 62.86701775 -20.92214225 61.06576883 -20.3200531 59.26423645 C-18.73678535 54.53543114 -17.14069364 49.81104964 -15.54211426 45.08740234 C-14.23632509 41.22194098 -12.93953065 37.35349173 -11.64321995 33.48484325 C-8.96883308 25.50393197 -6.28870236 17.52492821 -3.59204102 9.55151367 C-3.34316635 8.81229172 -3.09429169 8.07306976 -2.83787537 7.31144714 C-1.11559041 2.23118081 -1.11559041 2.23118081 0 0 Z " fill="#ADDA81" transform="translate(293,15)"/>
<path d="M0 0 C4.56307244 2.26681663 7.29424474 5.60642733 8.94140625 10.33984375 C10.36831941 18.28412066 10.10171708 26.50048573 10.1184082 34.53857422 C10.12468733 35.94240989 10.13133536 37.34624396 10.13832092 38.75007629 C10.15916007 43.31904993 10.16969186 47.88802322 10.1796875 52.45703125 C10.1837401 54.03631736 10.18785717 55.6156033 10.19203758 57.19488907 C10.21103063 64.60482327 10.22528392 72.01474777 10.23364955 79.42470157 C10.24345461 87.96597385 10.2698832 96.50698926 10.31015044 105.04817092 C10.34027345 111.66494304 10.35511405 118.28164117 10.35843056 124.89848053 C10.36078176 128.84562346 10.36975398 132.79249 10.39489174 136.73955917 C10.41811651 140.44482155 10.42242873 144.1496242 10.41213036 147.85494041 C10.41139694 149.86276045 10.43051834 151.87055689 10.45019531 153.87828064 C10.4432515 155.07255173 10.43630768 156.26682281 10.42915344 157.49728394 C10.4315418 158.53513975 10.43393015 159.57299557 10.43639088 160.64230156 C9.80920885 164.06028647 8.64033127 165.21607932 5.94140625 167.33984375 C1.66108807 168.76661648 -2.44901617 168.60449975 -6.93359375 168.65234375 C-7.83207031 168.68134766 -8.73054687 168.71035156 -9.65625 168.74023438 C-13.97455584 168.78169521 -16.38222744 168.75719446 -20.12890625 166.4453125 C-23.26085429 163.02806554 -23.18942322 160.98023992 -23.2124939 156.42062378 C-23.22109436 155.15889847 -23.22969482 153.89717316 -23.23855591 152.59721375 C-23.24299134 151.1909489 -23.24728968 149.78468361 -23.25146484 148.37841797 C-23.25936506 146.90343533 -23.26763396 145.42845462 -23.27624512 143.95347595 C-23.30248197 139.1005132 -23.31777776 134.24754177 -23.33203125 129.39453125 C-23.33739088 127.72372558 -23.34276839 126.05291997 -23.3481636 124.38211441 C-23.36979777 117.43015478 -23.38853298 110.47819748 -23.399786 103.52621269 C-23.41601383 93.56628721 -23.44915685 83.60675258 -23.50618684 73.64697444 C-23.5449217 66.64304536 -23.56442307 59.63922064 -23.56970656 52.63518727 C-23.57335616 48.45299325 -23.58533461 44.27121595 -23.6178093 40.08913803 C-23.64795145 36.15081195 -23.65418027 32.21315332 -23.64242554 28.2747364 C-23.64220529 26.83321834 -23.6504701 25.39166878 -23.66807938 23.95025826 C-23.76138851 15.86910054 -23.66972577 9.54048177 -18.05859375 3.33984375 C-12.83449318 -1.51978469 -6.69927076 -2.148343 0 0 Z " fill="#FCEAAF" transform="translate(262.05859375,280.66015625)"/>
<path d="M0 0 C10.56 0 21.12 0 32 0 C32 0.33 32 0.66 32 1 C26.72 1 21.44 1 16 1 C16.92296875 3.35640625 17.8459375 5.7128125 18.796875 8.140625 C27.35974945 30.02141201 35.84785385 51.93016314 44.265625 73.8671875 C45.11456387 76.07943455 45.9635223 78.2916741 46.8125 80.50390625 C47.44647705 82.15605637 47.44647705 82.15605637 48.09326172 83.84158325 C50.74145613 90.73775574 53.403048 97.62859931 56.07513428 104.51554871 C57.87190047 109.14710579 59.66460891 113.78022925 61.45715332 118.41342163 C62.30046173 120.58983174 63.14566909 122.76550729 63.99304199 124.94033813 C71.33102034 143.77738416 78.51034899 162.8028772 83.4375 182.4375 C83.80004883 183.80745117 83.80004883 183.80745117 84.16992188 185.20507812 C85.60919046 190.80579739 86.49014471 196.23922128 87 202 C85.23002526 202.81436868 83.45898848 203.6264294 81.6875 204.4375 C80.70136719 204.88996094 79.71523437 205.34242188 78.69921875 205.80859375 C76 207 76 207 73 208 C71.41085789 206.41085789 71.47257311 204.53603152 71.08984375 202.34765625 C70.90357422 201.34025391 70.71730469 200.33285156 70.52539062 199.29492188 C70.15152761 197.23929631 69.78599366 195.18212529 69.43164062 193.12304688 C65.45206278 171.93803345 57.60393051 151.61967846 49.75 131.625 C48.87477499 129.37626759 48.00053169 127.12715288 47.12719727 124.87768555 C45.32108008 120.22771652 43.51085264 115.57937987 41.69775391 110.93212891 C39.08457175 104.22668683 36.49657716 97.51177222 33.91796875 90.79296875 C33.50479401 89.71647568 33.09161926 88.6399826 32.66592407 87.53086853 C31.83559681 85.36694752 31.00538598 83.20298183 30.17529297 81.03897095 C24.65913382 66.66037317 19.12149073 52.29072686 13.51953125 37.9453125 C12.62699037 35.65651135 11.73449295 33.36769326 10.84204102 31.07885742 C9.14633408 26.7304369 7.4440153 22.38468272 5.73803711 18.0402832 C4.97615739 16.08814795 4.21450695 14.1359232 3.453125 12.18359375 C3.10107498 11.29249908 2.74902496 10.40140442 2.38630676 9.48330688 C2.06965561 8.66824677 1.75300446 7.85318665 1.42675781 7.01342773 C1.01094452 5.95296486 1.01094452 5.95296486 0.58673096 4.87107849 C0 3 0 3 0 0 Z " fill="#7CBC80" transform="translate(163,63)"/>
<path d="M0 0 C5.28 0 10.56 0 16 0 C15.31691169 3.41544153 14.69933108 6.08580839 13.49145508 9.25292969 C13.18127441 10.07186707 12.87109375 10.89080444 12.55151367 11.73455811 C12.21095947 12.62137268 11.87040527 13.50818726 11.51953125 14.421875 C10.9790918 15.84273407 10.9790918 15.84273407 10.42773438 17.29229736 C9.22664329 20.44640121 8.01966786 23.5982174 6.8125 26.75 C5.96096222 28.98168712 5.10964827 31.21345966 4.25854492 33.4453125 C-3.10058095 52.7235808 -10.53942554 71.97115854 -17.97705078 91.21923828 C-23.34942533 105.12369803 -28.71888213 119.02921115 -34.04067993 132.953125 C-34.70749396 134.69672331 -35.3753926 136.43990733 -36.04452515 138.18261719 C-41.25244576 151.75112025 -46.2580549 165.32460486 -49.8125 179.4375 C-50.02841797 180.27603516 -50.24433594 181.11457031 -50.46679688 181.97851562 C-50.98261175 183.98446237 -51.49206686 185.99204302 -52 188 C-54.53106605 183.28307529 -55.72423664 178.26560046 -57.125 173.125 C-57.40214844 172.14402344 -57.67929687 171.16304687 -57.96484375 170.15234375 C-58.22652344 169.19714844 -58.48820312 168.24195313 -58.7578125 167.2578125 C-58.9964502 166.3930127 -59.23508789 165.52821289 -59.48095703 164.63720703 C-60.96386794 157.10268041 -58.65386828 151.72405099 -55.890625 144.7734375 C-55.45681519 143.658479 -55.02300537 142.54352051 -54.5760498 141.39477539 C-53.39071467 138.35305402 -52.19665505 135.31493353 -50.99894714 132.27806854 C-49.7367012 129.07071197 -48.48635092 125.85872878 -47.23535156 122.64697266 C-45.42888864 118.01141779 -43.61952783 113.37701797 -41.80619431 108.74414635 C-37.48502937 97.7020335 -33.22448382 86.63684494 -28.9753418 75.5668335 C-27.75351246 72.38414944 -26.5302881 69.20200497 -25.30664062 66.02001953 C-16.84826656 44.02209927 -8.42161335 22.012015 0 0 Z " fill="#ADDA81" transform="translate(332,64)"/>
<path d="M0 0 C10.56 0 21.12 0 32 0 C32 0.33 32 0.66 32 1 C26.39 1 20.78 1 15 1 C14.67 2.65 14.34 4.3 14 6 C13.53150009 7.4293623 13.02746198 8.84748835 12.49145508 10.25292969 C12.18129456 11.07181168 11.87113403 11.89069366 11.55157471 12.73439026 C11.21100037 13.62126022 10.87042603 14.50813019 10.51953125 15.421875 C9.97881989 16.84348183 9.97881989 16.84348183 9.42718506 18.29380798 C8.22630286 21.44741841 7.01952566 24.59873632 5.8125 27.75 C4.96390127 29.97363404 4.11551671 32.19734982 3.26733398 34.42114258 C-8.0102448 63.96005162 -19.42029106 93.44846113 -30.84765625 122.9296875 C-31.12578659 123.6472522 -31.40391693 124.36481689 -31.69047546 125.10412598 C-31.9560878 125.78938354 -32.22170013 126.47464111 -32.49536133 127.18066406 C-32.87526718 128.16081482 -32.87526718 128.16081482 -33.2628479 129.1607666 C-33.97682689 131.00271713 -34.69092608 132.84462107 -35.4050293 134.68652344 C-38.66355039 143.10217355 -41.87190581 151.53493809 -45 160 C-47.41056188 156.38415718 -48.71867365 152.75528498 -50.1875 148.6875 C-50.61579102 147.56698242 -50.61579102 147.56698242 -51.05273438 146.42382812 C-51.31763672 145.68970703 -51.58253906 144.95558594 -51.85546875 144.19921875 C-52.09934326 143.53752686 -52.34321777 142.87583496 -52.59448242 142.1940918 C-53.75737781 135.90213464 -50.52952054 129.67687018 -48.30859375 123.91796875 C-47.93121567 122.92658401 -47.55383759 121.93519928 -47.1650238 120.91377258 C-45.92816885 117.66949033 -44.68306253 114.4284481 -43.4375 111.1875 C-42.58122761 108.94803722 -41.72527344 106.70845274 -40.86962891 104.46875 C-33.96476413 86.41894429 -26.97856837 68.40028901 -19.9296875 50.40625 C-19.6451622 49.67843826 -19.3606369 48.95062653 -19.06748962 48.20075989 C-17.11771196 43.23542391 -17.11771196 43.23542391 -16 41 C-15.66661404 37.54187831 -15.66661404 37.54187831 -16 34 C-16.515625 33.484375 -17.03125 32.96875 -17.5625 32.4375 C-18.036875 31.963125 -18.51125 31.48875 -19 31 C-18.73395847 25.54614854 -16.63042068 20.18863436 -15 15 C-14.0925 15.061875 -13.185 15.12375 -12.25 15.1875 C-8.60210394 15.2775433 -8.60210394 15.2775433 -5 12 C-3.35 8.04 -1.7 4.08 0 0 Z " fill="#94CA80" transform="translate(317,63)"/>
<path d="M0 0 C8.1318836 0.32060456 8.1318836 0.32060456 11.875 3.25 C12.57625 4.1575 13.2775 5.065 14 6 C14.5775 6.721875 15.155 7.44375 15.75 8.1875 C19.29969988 16.17432474 18.13785747 26.34188449 18.11352539 34.89501953 C18.11324272 36.26593524 18.11340281 37.6368511 18.1139679 39.00776672 C18.11425276 42.69921911 18.10840651 46.39063846 18.10139394 50.08208323 C18.09510844 53.95111323 18.09455251 57.82014414 18.09336853 61.68917847 C18.09027046 69.00224992 18.08207775 76.31530629 18.07201904 83.62837112 C18.0608104 91.95976043 18.05533552 100.2911505 18.05032361 108.62254548 C18.03989375 125.74837236 18.02232403 142.87418458 18 160 C11.35142425 160.12762916 11.35142425 160.12762916 8.3125 157.875 C7.75175781 157.48054687 7.19101562 157.08609375 6.61328125 156.6796875 C0.98866577 150.82355031 1.564207 144.08161269 1.58349609 136.47143555 C1.57491074 135.21039505 1.56632538 133.94935455 1.55747986 132.65010071 C1.53420245 129.19897431 1.52900895 125.74802799 1.52682066 122.2968328 C1.52113495 118.66656296 1.49783579 115.03640801 1.47622681 111.40620422 C1.43771207 104.51701684 1.41349913 97.62786248 1.39510214 90.73859483 C1.36178956 78.44826726 1.30336717 66.15804324 1.24111044 53.86783248 C1.21987087 49.56680584 1.20457693 45.26581095 1.194152 40.9647451 C1.15880245 27.2802578 1.08734441 13.64833129 0 0 Z " fill="#FEF5D7" transform="translate(254,280)"/>
<path d="M0 0 C4.95 0 9.9 0 15 0 C17.68492093 5.8240362 19.95709806 11.55427382 21.8125 17.6875 C22.33033394 19.36210143 22.84857981 21.03657553 23.3671875 22.7109375 C23.63370117 23.57686523 23.90021484 24.44279297 24.17480469 25.33496094 C25.56852912 29.83611357 27.00458231 34.32370268 28.4375 38.8125 C29.0300637 40.67314021 29.62251087 42.53381754 30.21484375 44.39453125 C30.50987793 45.32088379 30.80491211 46.24723633 31.10888672 47.20166016 C32.57346255 51.80082951 34.03666929 56.40043436 35.5 61 C36.08332661 62.83333547 36.66665995 64.6666688 37.25 66.5 C38.41666667 70.16666667 39.58333333 73.83333333 40.75 77.5 C41.0392334 78.40854736 41.3284668 79.31709473 41.62646484 80.25317383 C42.20601861 82.07557725 42.78448007 83.89832843 43.36181641 85.72143555 C44.86892838 90.47551858 46.39794673 95.22099951 47.9609375 99.95703125 C48.28126953 100.93736328 48.60160156 101.91769531 48.93164062 102.92773438 C49.54044482 104.78943996 50.15585662 106.64900384 50.77929688 108.50585938 C53.19638889 115.93743133 55.51344709 123.13773504 52.0625 130.5625 C51.68222656 131.40941406 51.30195313 132.25632813 50.91015625 133.12890625 C50.60980469 133.74636719 50.30945313 134.36382812 50 135 C47.13835006 132.55585095 46.12552496 130.21056281 44.88134766 126.68896484 C44.48813324 125.58981247 44.09491882 124.4906601 43.68978882 123.35820007 C43.26879913 122.15460342 42.84780945 120.95100677 42.4140625 119.7109375 C41.96059105 118.43503522 41.50627605 117.15943248 41.05117798 115.8841095 C40.07650919 113.14828379 39.1068748 110.41074806 38.14123535 107.67172241 C35.84066422 101.14703427 33.51620198 94.63084955 31.19256592 88.11434746 C30.66107226 86.62344182 30.12990614 85.13241937 29.59906006 83.64128304 C25.77056205 72.88824269 21.87797782 62.16088426 17.9140625 51.45703125 C17.6722739 50.80374344 17.43048531 50.15045563 17.18136978 49.47737122 C15.090498 43.82966451 12.9949013 38.18373924 10.88946533 32.54144287 C9.61529811 29.12665593 8.34647612 25.70991925 7.078125 22.29296875 C6.70724762 21.30601517 6.33637024 20.31906158 5.95425415 19.30220032 C3.59786928 12.94197288 1.70524346 6.56585603 0 0 Z " fill="#93C980" transform="translate(211,32)"/>
<path d="M0 0 C5.28 0 10.56 0 16 0 C9.81909703 18.1863118 3.00436204 36.13520238 -3.76367188 54.10858154 C-6.20651487 60.59738326 -8.64509155 67.08779 -11.0841465 73.57801628 C-11.92532097 75.81534375 -12.76745264 78.05230883 -13.60978699 80.28919983 C-16.45240928 87.84301534 -19.26592999 95.406047 -22 103 C-24.97824368 101.51087816 -25.08520782 99.4789722 -26.125 96.375 C-26.65480469 94.83972656 -26.65480469 94.83972656 -27.1953125 93.2734375 C-28.85551653 86.51979197 -27.73411161 81.18519296 -25.53735352 74.80151367 C-25.14474335 73.61974045 -25.14474335 73.61974045 -24.74420166 72.41409302 C-23.88243783 69.82858109 -23.00587618 67.24835845 -22.12890625 64.66796875 C-21.52508029 62.86701775 -20.92214225 61.06576883 -20.3200531 59.26423645 C-18.73678535 54.53543114 -17.14069364 49.81104964 -15.54211426 45.08740234 C-14.23632509 41.22194098 -12.93953065 37.35349173 -11.64321995 33.48484325 C-8.96883308 25.50393197 -6.28870236 17.52492821 -3.59204102 9.55151367 C-3.34316635 8.81229172 -3.09429169 8.07306976 -2.83787537 7.31144714 C-1.11559041 2.23118081 -1.11559041 2.23118081 0 0 Z " fill="#94CB80" transform="translate(293,15)"/>
</svg>
