<?xml version="1.0" encoding="UTF-8"?>
<svg version="1.1" xmlns="http://www.w3.org/2000/svg" width="512" height="512">
<path d="M0 0 C1.12781891 -0.0159874 2.25563782 -0.03197479 3.41763306 -0.04844666 C4.62092255 -0.05380936 5.82421204 -0.05917206 7.06396484 -0.06469727 C8.93476212 -0.07823997 8.93476212 -0.07823997 10.84335327 -0.09205627 C13.47415776 -0.10653748 16.1049981 -0.1154402 18.73583984 -0.11914062 C22.1032744 -0.12454418 25.46952061 -0.16232868 28.83661842 -0.20788479 C32.05816336 -0.24478535 35.2797369 -0.24616563 38.50146484 -0.25219727 C39.7088028 -0.27172958 40.91614075 -0.2912619 42.1600647 -0.31138611 C50.48679997 -0.26626174 50.48679997 -0.26626174 53.94042969 2.71630859 C55.14990234 5.30639648 55.14990234 5.30639648 55.14990234 7.30639648 C61.41990234 7.30639648 67.68990234 7.30639648 74.14990234 7.30639648 C74.47990234 5.98639648 74.80990234 4.66639648 75.14990234 3.30639648 C76.24281883 1.58062649 76.24281883 1.58062649 78.14990234 0.30639648 C80.73407357 0.00959392 83.07815255 -0.10273088 85.66323853 -0.08128357 C86.43532666 -0.08666911 87.20741479 -0.09205464 88.00289953 -0.09760338 C90.59844781 -0.11194759 93.19349071 -0.10476334 95.7890625 -0.09765625 C97.64680391 -0.10335669 99.50454182 -0.11031968 101.36227417 -0.11845398 C106.41630887 -0.13644296 111.47017048 -0.13520547 116.52422762 -0.12951159 C120.74362995 -0.126426 124.96299873 -0.13250563 129.18239629 -0.13855034 C139.14115701 -0.15261469 149.099832 -0.15102026 159.05859375 -0.13964844 C169.32584897 -0.12818322 179.59284249 -0.1422117 189.8600632 -0.16904491 C198.67634597 -0.19122189 207.49254673 -0.19783425 216.30885541 -0.1919685 C221.57356803 -0.18860034 226.83811315 -0.19100388 232.10280228 -0.20821953 C237.05884826 -0.2237168 242.01450821 -0.21970212 246.97053909 -0.20091438 C248.78572517 -0.19723527 250.60094001 -0.20031714 252.41609955 -0.21080017 C271.42521651 -0.31216361 271.42521651 -0.31216361 279.45458984 6.16577148 C279.97279297 6.78967773 280.49099609 7.41358398 281.02490234 8.05639648 C281.55857422 8.66999023 282.09224609 9.28358398 282.64208984 9.91577148 C287.23397708 17.19617301 287.58504218 23.81416158 287.54431152 32.2063446 C287.55040263 33.38979881 287.55649373 34.57325301 287.56276941 35.79256946 C287.57649328 39.05999874 287.57686432 42.32710695 287.57139444 45.59455025 C287.56871645 49.12490208 287.58327002 52.65519045 287.5954895 56.18551636 C287.61650971 63.0936684 287.62108645 70.00173647 287.61930162 76.90991672 C287.61799286 82.52372877 287.6218039 88.13751466 287.62922668 93.75132179 C287.6313259 95.36964013 287.6334235 96.98795847 287.6355195 98.60627681 C287.6370848 99.814535 287.6370848 99.814535 287.63868171 101.04720245 C287.65756856 116.26839709 287.65653797 131.4895435 287.64971238 146.71074501 C287.64413169 160.63906536 287.66498748 174.56720207 287.69807285 188.49547949 C287.73178968 202.80059973 287.74698113 217.10563192 287.74235582 231.41079265 C287.74010992 239.44081193 287.74537265 247.47066125 287.77024841 255.50064659 C287.79123505 262.33320352 287.79487943 269.16549719 287.77594882 275.99806484 C287.76677644 279.48439998 287.76569315 282.97024389 287.78630447 286.45654106 C287.80437678 290.23394744 287.79183519 294.01003421 287.7713623 297.78739929 C287.78388015 298.89186218 287.796398 299.99632508 287.80929518 301.13425654 C287.71299678 309.38707317 287.71299678 309.38707317 284.7360611 312.52633381 C282.14990234 314.30639648 282.14990234 314.30639648 280.14990234 314.30639648 C280.14990234 320.57639648 280.14990234 326.84639648 280.14990234 333.30639648 C281.79990234 333.63639648 283.44990234 333.96639648 285.14990234 334.30639648 C287.504349 337.83806647 287.4048871 339.30007317 287.41732788 343.48426819 C287.43012283 345.4250676 287.43012283 345.4250676 287.44317627 347.40507507 C287.4424772 348.8423158 287.44155411 350.27955642 287.44042969 351.71679688 C287.44641321 353.22809176 287.45321835 354.73938359 287.46078491 356.25067139 C287.47847793 360.36055453 287.4831419 364.47035442 287.48441648 368.58027196 C287.48583768 371.15014147 287.49010685 373.7199898 287.49541092 376.28985405 C287.51392765 385.26209736 287.52208017 394.23428119 287.52050781 403.20654297 C287.5193085 411.55723024 287.54036512 419.90765816 287.57199514 428.25827986 C287.59820418 435.43467038 287.60887305 442.61097651 287.60759699 449.78741449 C287.60708838 454.07017684 287.61271473 458.35270916 287.63395309 462.63542366 C287.65341162 466.66975148 287.65340842 470.70363187 287.63891983 474.73797607 C287.63683947 476.21249996 287.64148625 477.68705238 287.65364075 479.16152763 C287.72781776 488.78990829 287.2469829 497.24091506 281.00146484 504.96264648 C280.26669922 505.57108398 279.53193359 506.17952148 278.77490234 506.80639648 C278.04529297 507.43545898 277.31568359 508.06452148 276.56396484 508.71264648 C270.3941933 512.78589372 264.22795517 512.59708963 257.09356689 512.58055115 C255.97660266 512.58578783 254.85963842 512.5910245 253.70882678 512.59641987 C249.96421423 512.61142748 246.21973823 512.6121252 242.47509766 512.61279297 C239.79095895 512.62041394 237.10683171 512.62879259 234.42269897 512.63801575 C227.12922758 512.66083818 219.83578533 512.66878331 212.54228306 512.67384219 C207.98556906 512.67710228 203.42886347 512.68362663 198.87215424 512.69084358 C186.2480204 512.71040555 173.62389438 512.72681224 160.99974442 512.72972012 C159.78864571 512.73000147 159.78864571 512.73000147 158.55308037 512.73028851 C156.91639439 512.73065475 155.27970842 512.73101845 153.64302245 512.73137962 C152.83060531 512.73156243 152.01818818 512.73174524 151.18115234 512.73193359 C150.36774001 512.73211414 149.55432768 512.73229469 148.71626648 512.73248071 C135.53808276 512.73602186 122.3600625 512.76304227 109.18193546 512.80043148 C95.64187989 512.83853918 82.10190538 512.85787777 68.561795 512.85817963 C60.96361296 512.85876363 53.36562595 512.86721851 45.7674942 512.89617729 C39.29735679 512.92072416 32.82748556 512.92795191 26.35731414 512.91292977 C23.058676 512.90577423 19.76067082 512.90929598 16.46207047 512.92934036 C12.87898108 512.94978339 9.29724487 512.93925716 5.71417236 512.92112732 C4.68127366 512.93432729 3.64837496 512.94752725 2.5841763 512.96112722 C-5.23368002 512.87101213 -11.85660653 510.90088919 -17.76781535 505.58028215 C-23.63515086 499.4558149 -25.30591111 492.19617676 -25.23041439 483.97854805 C-25.23507431 483.17540088 -25.23973423 482.37225371 -25.24453536 481.54476875 C-25.25646127 478.86057979 -25.24709927 476.17689925 -25.23777771 473.4927063 C-25.24195168 471.54601989 -25.24742954 469.5993359 -25.25409752 467.65265644 C-25.26856257 462.30844603 -25.26430404 456.96438971 -25.25693071 451.62017083 C-25.25220398 445.8545437 -25.26470452 440.08895014 -25.27494812 434.32333374 C-25.29215122 423.02994538 -25.29297298 411.73661262 -25.28773522 400.44321455 C-25.28369505 391.2644228 -25.28513525 382.0856475 -25.29048347 372.90685654 C-25.2912319 371.60085718 -25.29198032 370.29485782 -25.29275142 368.94928273 C-25.29428289 366.29620831 -25.29582123 363.64313389 -25.29736639 360.99005948 C-25.30742489 343.17470253 -25.31135766 325.35935146 -25.3037405 307.543993 C-25.30344333 306.84746327 -25.30314615 306.15093354 -25.30283998 305.43329684 C-25.30039108 299.77712559 -25.29777948 294.1209544 -25.29515584 288.46478323 C-25.2850541 266.40365795 -25.29340785 244.3426088 -25.31665039 222.28149414 C-25.34272788 197.48947661 -25.35552007 172.69750535 -25.34846264 147.90547359 C-25.34496796 134.78084187 -25.34721894 121.65627266 -25.36471367 108.53165054 C-25.37942195 97.35878522 -25.38008901 86.18602642 -25.36264276 75.01316322 C-25.3541191 69.31270196 -25.35201672 63.6124311 -25.36729431 57.91197968 C-25.38111042 52.69222449 -25.37641762 47.47282336 -25.35705508 42.25308882 C-25.35328533 40.36621873 -25.35624502 38.4793205 -25.36666673 36.59247543 C-25.47219798 16.02099325 -25.47219798 16.02099325 -18.70166016 7.65014648 C-17.96689453 7.04170898 -17.23212891 6.43327148 -16.47509766 5.80639648 C-15.74548828 5.17733398 -15.01587891 4.54827148 -14.26416016 3.90014648 C-9.75700214 0.92454702 -5.33811683 0.05753232 0 0 Z " fill="#433C41" transform="translate(124.85009765625,-0.306396484375)"/>
<path d="M0 0 C71.94 0 143.88 0 218 0 C218 111.21 218 222.42 218 337 C146.06 337 74.12 337 0 337 C0 225.79 0 114.58 0 0 Z " fill="#61D7F7" transform="translate(146,69)"/>
<path d="M0 0 C6.6 0 13.2 0 20 0 C20.99 1.98 21.98 3.96 23 6 C25.83305157 7.41652578 28.22133657 7.14107369 31.39065552 7.15821838 C32.38552202 7.16562535 32.38552202 7.16562535 33.40048683 7.17318195 C35.6330368 7.18859581 37.86555793 7.19692804 40.09814453 7.20532227 C41.69448095 7.21489774 43.29081482 7.22490762 44.887146 7.23532104 C49.22984797 7.26241203 53.57256087 7.28339884 57.91530085 7.30332303 C62.45038001 7.32515677 66.98542538 7.35255821 71.52047729 7.37937927 C80.11230588 7.42934156 88.7041532 7.47426724 97.29601848 7.51740164 C107.07582853 7.56674383 116.85560467 7.62167313 126.63538194 7.67708123 C146.75689125 7.79095555 166.87843165 7.89704505 187 8 C187 20.87 187 33.74 187 47 C182.83267494 47.00546844 182.83267494 47.00546844 178.5811615 47.01104736 C152.4326775 47.04725332 126.28430854 47.10542547 100.13591671 47.18390274 C97.46015889 47.19185426 94.78440084 47.19972058 92.10864258 47.20751953 C91.1110362 47.21043159 91.1110362 47.21043159 90.09327615 47.21340248 C79.32801027 47.24441394 68.56276571 47.26140074 57.79746359 47.27319422 C46.74923676 47.28561023 35.70112541 47.31341871 24.65296847 47.35461307 C18.44820787 47.3772609 12.24360679 47.39290868 6.03880119 47.39188385 C0.19881121 47.39113922 -5.64082568 47.40901136 -11.48072433 47.44116783 C-13.62408145 47.44968735 -15.76747807 47.4514029 -17.9108448 47.44580269 C-20.83840186 47.43917236 -23.76483237 47.45706086 -26.692276 47.48101807 C-27.53956758 47.47325765 -28.38685916 47.46549723 -29.25982624 47.45750165 C-34.98104932 47.5403287 -38.39790121 48.50650038 -43 52 C-48.20585509 58.25215599 -47.56160417 64.92310278 -47.50793457 72.77159119 C-47.51254646 74.1826193 -47.51890131 75.5936426 -47.52684355 77.0046559 C-47.54352095 80.87286512 -47.5352979 84.74067893 -47.52289867 88.60888946 C-47.51384385 92.78417298 -47.5278201 96.95938877 -47.53881836 101.13465881 C-47.55660403 109.31065732 -47.55276326 117.48650893 -47.5411678 125.66251319 C-47.53213332 132.30798067 -47.53090954 138.953407 -47.53526306 145.59887886 C-47.53587599 146.54479419 -47.53648893 147.49070952 -47.53712043 148.46528896 C-47.53839934 150.38692638 -47.53969619 152.30856379 -47.5410108 154.23020119 C-47.5524169 172.24943137 -47.53930274 190.26858015 -47.51780933 208.28779698 C-47.49994122 223.74618603 -47.50304004 239.20445492 -47.52148438 254.6628418 C-47.54289555 272.61615256 -47.55131521 290.56939197 -47.53903532 308.52271372 C-47.53776113 310.43757759 -47.53650365 312.35244148 -47.53526306 314.26730537 C-47.53433741 315.68050802 -47.53433741 315.68050802 -47.53339306 317.12226022 C-47.52994068 323.75856117 -47.53576614 330.39481683 -47.54518127 337.03111076 C-47.55640549 345.12034816 -47.55335243 353.20943032 -47.5320583 361.29864996 C-47.52155312 365.42524456 -47.51741685 369.55158044 -47.53065491 373.67817307 C-47.54259601 377.45767375 -47.53598841 381.23667651 -47.5147447 385.01613218 C-47.50817758 387.02701502 -47.52119949 389.03793257 -47.53497362 391.04877895 C-47.47658864 397.78190859 -47.3176092 403.5601146 -43 409 C-38.18623992 413.44311102 -33.99909544 413.57553878 -27.77456665 413.51898193 C-26.85472437 413.52648319 -25.93488209 413.53398444 -24.98716581 413.541713 C-21.90999629 413.56198626 -18.83356385 413.55388805 -15.75634766 413.54589844 C-13.54858674 413.55463362 -11.34083216 413.56511921 -9.13308716 413.57722473 C-3.14184772 413.60511181 2.84918541 413.6084888 8.84048033 413.60750484 C15.10257316 413.61063159 21.36457276 413.63624487 27.62661743 413.65948486 C38.1363269 413.69545513 48.64600064 413.71755181 59.15576172 413.72900391 C69.97936519 413.74083604 80.8028998 413.76103976 91.62646484 413.79248047 C92.29397551 413.79441657 92.96148618 413.79635267 93.64922445 413.79834744 C96.99803301 413.80811217 100.34684107 413.81804125 103.69564891 413.82805204 C131.46373449 413.91048073 159.23181752 413.96455433 187 414 C187.09965569 418.26832981 187.17183391 422.53602469 187.21972656 426.80517578 C187.23971295 428.25418917 187.26691197 429.70312325 187.30175781 431.15185547 C187.65333347 446.15586355 187.65333347 446.15586355 183 453 C177.77643393 457.96238777 173.67277134 459.30040918 166.56933594 459.22705078 C165.82748047 459.22734283 165.085625 459.22763489 164.32128906 459.22793579 C161.87553099 459.22654533 159.43007968 459.21099765 156.984375 459.1953125 C155.28615485 459.19158136 153.58793255 459.18873486 151.88970947 459.18673706 C147.42462193 459.17910857 142.95966494 459.15946681 138.49462891 459.1373291 C133.9365414 459.11685379 129.37843276 459.10773174 124.8203125 459.09765625 C115.88015104 459.07622018 106.94008639 459.04209368 98 459 C98.01885254 458.11376953 98.03770508 457.22753906 98.05712891 456.31445312 C98.07179199 455.14849609 98.08645508 453.98253906 98.1015625 452.78125 C98.12041504 451.62689453 98.13926758 450.47253906 98.15869141 449.28320312 C97.90242827 443.98131602 96.17115066 440.31985961 92.57421875 436.4765625 C86.62187409 431.154828 80.95642577 430.48532168 73.23046875 430.625 C67.61276789 431.27711521 64.11415344 433.57852601 60.44140625 437.78515625 C54.80549065 445.30503231 56 448.39192551 56 459 C16.73 459 -22.54 459 -63 459 C-63.0881306 402.39473359 -63.16200689 345.78953172 -63.20426132 289.18421637 C-63.20926433 282.50619295 -63.21443696 275.82816968 -63.21972656 269.15014648 C-63.2202496 268.48559528 -63.22077263 267.82104408 -63.22131152 267.13635496 C-63.23836347 245.58797623 -63.26841358 224.0396394 -63.30518888 202.49128606 C-63.3439736 179.72423019 -63.3679801 156.9571959 -63.37635398 134.19010752 C-63.38185101 120.54738964 -63.39923235 106.90479202 -63.43166587 93.26211115 C-63.4527587 83.91537724 -63.45921193 74.56870579 -63.45400551 65.22194979 C-63.45143558 59.82391251 -63.45546133 54.42608584 -63.4768219 49.02808571 C-63.49621985 44.09016655 -63.49731409 39.15260057 -63.48359558 34.21466549 C-63.4818989 32.42454092 -63.48703018 30.63439472 -63.49953273 28.844313 C-63.51550277 26.41742869 -63.50698587 23.99183213 -63.49219131 21.56496906 C-63.50269937 20.86417041 -63.51320742 20.16337176 -63.5240339 19.44133678 C-63.45851301 14.71008084 -62.33463717 12.32739446 -59 9 C-56.5189562 7.7594781 -54.8384742 7.86215649 -52.06298828 7.84228516 C-50.52096237 7.82689194 -50.52096237 7.82689194 -48.94778442 7.81118774 C-47.83321869 7.80388641 -46.71865295 7.79658508 -45.5703125 7.7890625 C-43.2252534 7.76099666 -40.88020141 7.73233222 -38.53515625 7.703125 C-34.82633643 7.66182302 -31.11764959 7.62494785 -27.40869141 7.59863281 C-23.83728428 7.57107639 -20.26648624 7.5252053 -16.6953125 7.4765625 C-15.58479523 7.47330963 -14.47427795 7.47005676 -13.33010864 7.46670532 C-11.77862625 7.44185562 -11.77862625 7.44185562 -10.19580078 7.41650391 C-9.28694122 7.40841705 -8.37808167 7.4003302 -7.44168091 7.39199829 C-4.47771171 6.91614952 -3.12403352 6.10717345 -1 4 C-0.67 2.68 -0.34 1.36 0 0 Z " fill="#685D65" transform="translate(179,7)"/>
<path d="M0 0 C0.93108867 -0.00538554 1.86217734 -0.01077108 2.82148081 -0.01631981 C5.94293481 -0.03063291 9.06396675 -0.02348731 12.18544006 -0.01637268 C14.42272279 -0.02207448 16.66000262 -0.029038 18.89727783 -0.03717041 C24.97574499 -0.05513773 31.05406806 -0.0539267 37.13255382 -0.04822803 C42.20480472 -0.04514139 47.27702775 -0.05122276 52.34927469 -0.05726677 C64.99820185 -0.07212597 77.64704206 -0.06848859 90.2959627 -0.05640347 C101.2782847 -0.04647103 112.26043823 -0.05941176 123.24273425 -0.08333766 C134.52271979 -0.10772673 145.80262887 -0.11693723 157.08264738 -0.11068493 C163.4141898 -0.10731057 169.74559301 -0.10976238 176.07711601 -0.12693596 C182.03039975 -0.14237834 187.98336128 -0.13847935 193.93663216 -0.11963081 C196.12235578 -0.11593749 198.30810313 -0.11907494 200.49380493 -0.1295166 C203.4761427 -0.14267695 206.45740602 -0.1312225 209.43969727 -0.11352539 C210.30594583 -0.1231304 211.17219439 -0.1327354 212.06469291 -0.14263147 C218.83348925 -0.05991097 222.33577052 1.88914614 227.12659454 6.77972603 C229.72648168 12.44159198 229.33303691 17.9577505 229.29127502 24.11494446 C229.29588547 25.53335909 229.30223935 26.95176893 229.310184 28.37016881 C229.32688145 32.26343943 229.31862921 36.15631784 229.30623913 40.04958987 C229.29719243 44.2501127 229.31115658 48.45056787 229.32215881 52.65107727 C229.33995363 60.8786816 229.33609951 69.10614004 229.32450825 77.33375011 C229.31547676 84.02119416 229.3142487 90.7085973 229.31860352 97.39604568 C229.31921645 98.34764723 229.31982938 99.29924877 229.32046089 100.27968673 C229.32173979 102.21283968 229.32303664 104.14599263 229.32435125 106.07914557 C229.33576019 124.21091787 229.32263907 142.34260931 229.30114979 160.47436835 C229.28328428 176.02998543 229.28637779 191.5854831 229.30482483 207.14109802 C229.32623592 225.20463786 229.33465546 243.26810677 229.32237577 261.33165753 C229.32110158 263.25833264 229.3198441 265.18500776 229.31860352 267.11168289 C229.31767786 268.53362035 229.31767786 268.53362035 229.31673351 269.98428383 C229.3132809 276.66215111 229.31910717 283.33997339 229.32852173 290.01783371 C229.33974599 298.15833191 229.33669292 306.29867585 229.31539875 314.4391564 C229.30489319 318.59207196 229.30075792 322.74473043 229.31399536 326.89764404 C229.32593583 330.701239 229.31932986 334.50433914 229.29808515 338.30788936 C229.29151745 340.33174371 229.30454058 342.35563254 229.31831408 344.37945068 C229.20644583 357.36175994 229.20644583 357.36175994 224.78334045 362.38768005 C219.46951396 366.57559331 213.86339024 366.96446245 207.31980896 366.89561462 C205.93770703 366.90497457 205.93770703 366.90497457 204.52768385 366.9145236 C201.45687652 366.93040972 198.38686777 366.91786644 195.3160553 366.90525818 C193.10788512 366.91068115 190.89971856 366.9178048 188.69155884 366.92649841 C182.70619291 366.94471149 176.72110322 366.93767295 170.73573256 366.92498207 C164.46982555 366.91484661 158.203942 366.92424904 151.93803406 366.93052673 C140.744803 366.93826614 129.55167327 366.92584769 118.35846646 366.90548939 C108.21454724 366.88761075 98.07081108 366.89073135 87.92689514 366.90916443 C76.13621493 366.93058002 64.34562386 366.93853417 52.55492365 366.92671537 C46.3173315 366.9204788 40.0798654 366.91964968 33.84228134 366.93286133 C27.98004784 366.94441117 22.11816037 366.93640953 16.25596428 366.9132843 C14.10410703 366.90799313 11.95222068 366.90951793 9.80037498 366.91833496 C6.86415774 366.92925727 3.92905105 366.91556651 0.99290466 366.89561462 C-0.28588938 366.90899895 -0.28588938 366.90899895 -1.59051764 366.92265368 C-6.93270561 366.85218586 -9.98625334 365.94411332 -14.21665955 362.38768005 C-17.98939429 357.39135567 -19.33969474 353.89830954 -19.35367393 347.69974232 C-19.35874848 346.50738148 -19.36382302 345.31502063 -19.36905134 344.08652765 C-19.36954909 342.77001881 -19.37004685 341.45350998 -19.37055969 340.09710693 C-19.37457415 338.68953635 -19.37901235 337.28196692 -19.38383925 335.87439889 C-19.39581241 331.99728442 -19.40145491 328.12018241 -19.4060204 324.24305308 C-19.41197365 320.06499134 -19.42358416 315.88694451 -19.43431091 311.70889282 C-19.45884077 301.61436156 -19.47346266 291.51982535 -19.48637098 281.42527345 C-19.4900824 278.57470887 -19.49405567 275.72414478 -19.49812365 272.87358069 C-19.52335897 255.17639033 -19.54541462 237.47919921 -19.55785179 219.78199482 C-19.56078154 215.68221344 -19.5637432 211.58243208 -19.5667572 207.48265076 C-19.56750325 206.46365549 -19.5682493 205.44466023 -19.56901796 204.39478632 C-19.58167368 187.88482034 -19.61489938 171.37496201 -19.65655904 154.86504636 C-19.69896848 137.91924607 -19.72254566 120.9735009 -19.72777236 104.02764767 C-19.73118753 94.51130175 -19.74295528 84.99512406 -19.77587509 75.47883034 C-19.80386312 67.37486181 -19.81488041 59.271096 -19.80367963 51.16708288 C-19.79848982 47.03233986 -19.80140035 42.89802145 -19.82614517 38.76334 C-19.84862073 34.97621986 -19.84791168 31.18982977 -19.8289413 27.40269699 C-19.82481374 25.38761268 -19.8452995 23.37252408 -19.86672819 21.35754949 C-19.80336628 14.13310325 -19.27658762 8.81746487 -14.21665955 3.38768005 C-9.93960825 -0.39082448 -5.43310821 -0.03759816 0 0 Z M-4.21665955 14.38768005 C-4.21665955 125.59768005 -4.21665955 236.80768005 -4.21665955 351.38768005 C67.72334045 351.38768005 139.66334045 351.38768005 213.78334045 351.38768005 C213.78334045 240.17768005 213.78334045 128.96768005 213.78334045 14.38768005 C141.84334045 14.38768005 69.90334045 14.38768005 -4.21665955 14.38768005 Z " fill="#000101" transform="translate(150.21665954589844,54.61231994628906)"/>
<path d="M0 0 C1.12781891 -0.0159874 2.25563782 -0.03197479 3.41763306 -0.04844666 C4.62092255 -0.05380936 5.82421204 -0.05917206 7.06396484 -0.06469727 C8.93476212 -0.07823997 8.93476212 -0.07823997 10.84335327 -0.09205627 C13.47415776 -0.10653748 16.1049981 -0.1154402 18.73583984 -0.11914062 C22.1032744 -0.12454418 25.46952061 -0.16232868 28.83661842 -0.20788479 C32.05816336 -0.24478535 35.2797369 -0.24616563 38.50146484 -0.25219727 C39.7088028 -0.27172958 40.91614075 -0.2912619 42.1600647 -0.31138611 C50.44962607 -0.2664632 50.44962607 -0.2664632 53.97167969 2.61474609 C55.14990234 5.30639648 55.14990234 5.30639648 54.64990234 8.93139648 C53.08590671 12.45038667 52.37371952 13.40926458 49.14990234 15.30639648 C46.72840881 15.67147827 46.72840881 15.67147827 44.00170898 15.65942383 C42.97707047 15.66307953 41.95243195 15.66673523 40.89674377 15.67050171 C39.79563766 15.66120636 38.69453156 15.65191101 37.56005859 15.64233398 C35.22607143 15.65484467 32.89208704 15.66788171 30.55810547 15.68139648 C26.88002772 15.68533052 23.20222188 15.68135605 19.52416992 15.66674805 C15.97321848 15.65818753 12.4234095 15.67984426 8.87255859 15.70483398 C7.77347672 15.69149017 6.67439484 15.67814636 5.54200745 15.66439819 C-0.70199517 15.67728537 -0.70199517 15.67728537 -6.02026367 18.71899414 C-8.97209636 22.89291313 -8.99341617 25.83713452 -8.98152542 30.81622028 C-8.98357805 31.60381213 -8.98563069 32.39140397 -8.98774552 33.20286223 C-8.99344777 35.87006417 -8.99195432 38.537215 -8.99053955 41.204422 C-8.99312134 43.12474222 -8.99613398 45.04506191 -8.99954295 46.96538085 C-9.00763807 52.26434516 -9.00940392 57.56329594 -9.01014042 62.86226571 C-9.01198662 68.56858634 -9.01953173 74.27489988 -9.02627563 79.98121643 C-9.03987716 92.46863783 -9.04588647 104.95605602 -9.05028629 117.44348359 C-9.05304557 125.23508094 -9.05728233 133.02667704 -9.06179047 140.81827354 C-9.07398536 162.37490314 -9.08431974 183.93153111 -9.08766556 205.48816395 C-9.08788719 206.88268798 -9.08810898 208.27721201 -9.08833091 209.67173604 C-9.08855155 211.06966762 -9.08877203 212.46759921 -9.08899236 213.86553079 C-9.08943492 216.67011948 -9.08988203 219.47470818 -9.09033203 222.27929688 C-9.09044142 222.974674 -9.09055081 223.67005113 -9.09066352 224.38650029 C-9.09429509 246.9400433 -9.11021837 269.49355419 -9.1335224 292.04708489 C-9.15810418 315.88070482 -9.17183089 339.71430432 -9.17303348 363.54793757 C-9.17395163 376.54450181 -9.17973916 389.54102399 -9.19785309 402.53757668 C-9.21322039 413.60274616 -9.21839452 424.66786059 -9.21011499 435.7330387 C-9.20619654 441.38218184 -9.20719611 447.031214 -9.22117233 452.68034363 C-9.23383984 457.84758824 -9.23277707 463.01463768 -9.22058162 468.18188175 C-9.21861215 470.05538624 -9.22176016 471.92890423 -9.23042598 473.80238972 C-9.24143102 476.34151615 -9.23409315 478.87994308 -9.22203445 481.41904926 C-9.22962965 482.15296748 -9.23722484 482.88688569 -9.24505019 483.64304385 C-9.19973481 488.03786072 -8.56879735 490.82352738 -5.85009766 494.30639648 C-2.68453918 496.4167688 -1.94044807 496.55699003 1.67491722 496.56087208 C3.07435163 496.56962037 3.07435163 496.56962037 4.50205743 496.57854539 C5.52879151 496.57476607 6.55552558 496.57098674 7.6133728 496.5670929 C8.70271673 496.57091844 9.79206065 496.57474399 10.914415 496.57868546 C14.58329118 496.58904633 18.25201176 496.58501742 21.92089844 496.58105469 C24.54373826 496.58539947 27.16657681 496.59058183 29.78941345 496.59654236 C36.18555716 496.60930863 42.58165893 496.61108062 48.97781323 496.6087421 C54.17602601 496.60696078 59.37422603 496.60870457 64.57243729 496.61296654 C65.31160865 496.61356173 66.05078002 496.61415692 66.81235052 496.61477014 C68.31387626 496.61598186 69.81540201 496.617196 71.31692775 496.61841252 C85.40690383 496.62929567 99.496856 496.62712201 113.58683343 496.62102767 C126.48078207 496.61585889 139.37465514 496.62711154 152.26858883 496.64612589 C165.50229033 496.66549193 178.73595607 496.67376239 191.96967185 496.67000264 C199.40168533 496.66808858 206.8336345 496.67059797 214.26563644 496.68471718 C221.25382865 496.69785862 228.24186699 496.69538769 235.23005867 496.68230629 C237.79837787 496.67993254 240.3667076 496.68270356 242.93501472 496.69092941 C246.43434262 496.70133096 249.93315565 496.69334884 253.4324646 496.68061829 C254.45473723 496.68799257 255.47700986 496.69536686 256.53026044 496.7029646 C263.3679123 496.70126239 263.3679123 496.70126239 269.14990234 493.30639648 C271.50082855 490.04596783 271.40026996 487.02221623 271.40145874 483.08178711 C271.409533 481.16378296 271.409533 481.16378296 271.41777039 479.20703125 C271.41375632 477.79223589 271.4095854 476.37744097 271.40527344 474.96264648 C271.40802376 473.4710267 271.41170391 471.97940838 271.41624451 470.48779297 C271.42435369 467.27716086 271.42652571 464.06659838 271.42429733 460.85595703 C271.42146501 455.78013412 271.43581249 450.70445049 271.45327759 445.62866211 C271.5003144 431.19574059 271.52425141 416.76282874 271.53076172 402.32983398 C271.53450961 394.35750698 271.55251554 386.3853377 271.58585608 378.41307831 C271.60609748 373.36622098 271.60842736 368.31976964 271.5975759 363.27288818 C271.59497218 360.13471689 271.6089557 356.99678295 271.62765694 353.8586731 C271.63298749 352.40260685 271.63146736 350.94649713 271.62262154 349.490448 C271.61152582 347.50398503 271.62725516 345.51742601 271.64437866 343.53100586 C271.6454682 342.41898804 271.64655773 341.30697021 271.64768028 340.16125488 C272.26984531 336.62458616 273.30554793 335.44206277 276.14990234 333.30639648 C280.02493796 332.75281997 282.1508913 332.55834229 285.33690643 334.9440136 C287.68834029 338.00799575 287.65269494 339.76416805 287.65783691 343.60452271 C287.67475586 345.54738411 287.67475586 345.54738411 287.6920166 347.52949524 C287.68423929 348.96310648 287.6760466 350.39671552 287.66748047 351.83032227 C287.67290145 353.34176813 287.68002398 354.85320871 287.6887207 356.36463928 C287.70696942 360.47044636 287.69987785 364.57585172 287.68720436 368.6816659 C287.67707351 372.98382299 287.68647131 377.2859458 287.69274902 381.58810425 C287.70002989 388.81945967 287.69043117 396.0506518 287.67138672 403.28198242 C287.64966641 411.62533157 287.65663215 419.96828898 287.67869234 428.31162846 C287.69689293 435.48381451 287.69938049 442.65588312 287.68893766 449.82808483 C287.68272189 454.10745136 287.68181302 458.38663439 287.69508362 462.66598892 C287.7067077 466.69626693 287.69849793 470.726045 287.67550659 474.75626945 C287.67025214 476.22916652 287.67167686 477.70210622 287.68055725 479.17498589 C287.73315023 488.79068658 287.23830069 497.25164944 281.00146484 504.96264648 C280.26669922 505.57108398 279.53193359 506.17952148 278.77490234 506.80639648 C278.04529297 507.43545898 277.31568359 508.06452148 276.56396484 508.71264648 C270.3941933 512.78589372 264.22795517 512.59708963 257.09356689 512.58055115 C255.97660266 512.58578783 254.85963842 512.5910245 253.70882678 512.59641987 C249.96421423 512.61142748 246.21973823 512.6121252 242.47509766 512.61279297 C239.79095895 512.62041394 237.10683171 512.62879259 234.42269897 512.63801575 C227.12922758 512.66083818 219.83578533 512.66878331 212.54228306 512.67384219 C207.98556906 512.67710228 203.42886347 512.68362663 198.87215424 512.69084358 C186.2480204 512.71040555 173.62389438 512.72681224 160.99974442 512.72972012 C159.78864571 512.73000147 159.78864571 512.73000147 158.55308037 512.73028851 C156.91639439 512.73065475 155.27970842 512.73101845 153.64302245 512.73137962 C152.83060531 512.73156243 152.01818818 512.73174524 151.18115234 512.73193359 C150.36774001 512.73211414 149.55432768 512.73229469 148.71626648 512.73248071 C135.53808276 512.73602186 122.3600625 512.76304227 109.18193546 512.80043148 C95.64187989 512.83853918 82.10190538 512.85787777 68.561795 512.85817963 C60.96361296 512.85876363 53.36562595 512.86721851 45.7674942 512.89617729 C39.29735679 512.92072416 32.82748556 512.92795191 26.35731414 512.91292977 C23.058676 512.90577423 19.76067082 512.90929598 16.46207047 512.92934036 C12.87898108 512.94978339 9.29724487 512.93925716 5.71417236 512.92112732 C4.68127366 512.93432729 3.64837496 512.94752725 2.5841763 512.96112722 C-5.23368002 512.87101213 -11.85660653 510.90088919 -17.76781535 505.58028215 C-23.63515086 499.4558149 -25.30591111 492.19617676 -25.23041439 483.97854805 C-25.23507431 483.17540088 -25.23973423 482.37225371 -25.24453536 481.54476875 C-25.25646127 478.86057979 -25.24709927 476.17689925 -25.23777771 473.4927063 C-25.24195168 471.54601989 -25.24742954 469.5993359 -25.25409752 467.65265644 C-25.26856257 462.30844603 -25.26430404 456.96438971 -25.25693071 451.62017083 C-25.25220398 445.8545437 -25.26470452 440.08895014 -25.27494812 434.32333374 C-25.29215122 423.02994538 -25.29297298 411.73661262 -25.28773522 400.44321455 C-25.28369505 391.2644228 -25.28513525 382.0856475 -25.29048347 372.90685654 C-25.2912319 371.60085718 -25.29198032 370.29485782 -25.29275142 368.94928273 C-25.29428289 366.29620831 -25.29582123 363.64313389 -25.29736639 360.99005948 C-25.30742489 343.17470253 -25.31135766 325.35935146 -25.3037405 307.543993 C-25.30344333 306.84746327 -25.30314615 306.15093354 -25.30283998 305.43329684 C-25.30039108 299.77712559 -25.29777948 294.1209544 -25.29515584 288.46478323 C-25.2850541 266.40365795 -25.29340785 244.3426088 -25.31665039 222.28149414 C-25.34272788 197.48947661 -25.35552007 172.69750535 -25.34846264 147.90547359 C-25.34496796 134.78084187 -25.34721894 121.65627266 -25.36471367 108.53165054 C-25.37942195 97.35878522 -25.38008901 86.18602642 -25.36264276 75.01316322 C-25.3541191 69.31270196 -25.35201672 63.6124311 -25.36729431 57.91197968 C-25.38111042 52.69222449 -25.37641762 47.47282336 -25.35705508 42.25308882 C-25.35328533 40.36621873 -25.35624502 38.4793205 -25.36666673 36.59247543 C-25.47219798 16.02099325 -25.47219798 16.02099325 -18.70166016 7.65014648 C-17.96689453 7.04170898 -17.23212891 6.43327148 -16.47509766 5.80639648 C-15.74548828 5.17733398 -15.01587891 4.54827148 -14.26416016 3.90014648 C-9.75700214 0.92454702 -5.33811683 0.05753232 0 0 Z " fill="#000000" transform="translate(124.85009765625,-0.306396484375)"/>
<path d="M0 0 C71.94 0 143.88 0 218 0 C218 111.21 218 222.42 218 337 C146.06 337 74.12 337 0 337 C0 225.79 0 114.58 0 0 Z M1 1 C1 107.26 1 213.52 1 323 C33.401875 323.0825 65.80375 323.165 99.1875 323.25 C109.42676514 323.28641602 119.66603027 323.32283203 130.21557617 323.36035156 C139.37643926 323.37372748 139.37643926 323.37372748 148.53730774 323.3817749 C152.62467596 323.38550867 156.71183736 323.40052672 160.79914856 323.42230225 C166.00956296 323.44969442 171.21967567 323.45797294 176.4301554 323.4522891 C178.34438883 323.453478 180.25863258 323.46143625 182.17280424 323.47686052 C184.75553512 323.49670854 187.3370886 323.49197951 189.91984558 323.48101807 C190.67158208 323.49266872 191.42331858 323.50431938 192.19783497 323.51632309 C197.07737011 323.46052456 199.57999424 322.48224937 203 319 C204.27477575 316.4504485 204.12417831 314.67440577 204.12304783 311.81881523 C204.12503888 310.71408013 204.12702993 309.60934503 204.12908131 308.47113311 C204.12471205 306.63556215 204.12471205 306.63556215 204.12025452 304.76290894 C204.12110894 303.47079754 204.12196337 302.17868614 204.12284368 300.84741986 C204.12508827 297.24903013 204.12106785 293.65066996 204.11606562 290.052284 C204.11176079 286.17634565 204.11320757 282.30040906 204.1139679 278.42446899 C204.11449311 271.70518471 204.11134657 264.98591011 204.10573006 258.26662827 C204.09761472 248.55158731 204.0949998 238.83655105 204.09374207 229.12150706 C204.0915516 213.36078721 204.08489166 197.60007252 204.07543945 181.83935547 C204.0662652 166.52620469 204.05919589 151.21305531 204.05493164 135.89990234 C204.05466364 134.94690738 204.05439565 133.99391242 204.05411953 133.01203883 C204.05204019 125.55936848 204.05008324 118.10669809 204.04816496 110.6540277 C204.03872549 74.10268039 204.01860856 37.55134601 204 1 C137.01 1 70.02 1 1 1 Z " fill="#03BAF0" transform="translate(146,69)"/>
<path d="M0 0 C1.15941383 -0.00935994 1.15941383 -0.00935994 2.34225017 -0.01890898 C4.93484115 -0.03487611 7.52649673 -0.02222038 10.11909485 -0.00964355 C11.97698516 -0.01506326 13.83487117 -0.02218506 15.69274902 -0.03088379 C20.74264902 -0.04914446 25.79222269 -0.0420366 30.84212852 -0.02936745 C36.12837341 -0.01924646 41.4145902 -0.02863132 46.70083618 -0.03491211 C55.58412187 -0.04219432 64.46727465 -0.03258907 73.35054016 -0.0135498 C83.61044175 0.00818653 93.87002498 0.0011934 104.12991875 -0.02085543 C112.94198438 -0.03903305 121.75395438 -0.04155518 130.56603271 -0.03110075 C135.82736632 -0.02487451 141.08855057 -0.02400563 146.3498745 -0.0372467 C151.30184681 -0.0488377 156.253411 -0.04072009 161.20533943 -0.01766968 C163.01890766 -0.01239849 164.83251047 -0.01386902 166.64606476 -0.02272034 C185.64637523 -0.10687258 185.64637523 -0.10687258 193.6710968 6.36730957 C194.18929993 6.99121582 194.70750305 7.61512207 195.2414093 8.25793457 C195.77508118 8.87152832 196.30875305 9.48512207 196.8585968 10.11730957 C201.45048404 17.3977111 201.80154914 24.01569966 201.76081848 32.40788269 C201.76690958 33.59133689 201.77300069 34.77479109 201.77927637 35.99410754 C201.79300024 39.26153682 201.79337128 42.52864504 201.7879014 45.79608834 C201.78522341 49.32644017 201.79977697 52.85672853 201.81199646 56.38705444 C201.83301667 63.29520649 201.83759341 70.20327455 201.83580858 77.11145481 C201.83449982 82.72526686 201.83831085 88.33905275 201.84573364 93.95285988 C201.84783286 95.57117822 201.84993046 97.18949655 201.85202646 98.8078149 C201.85306999 99.61332036 201.85411352 100.41882582 201.85518867 101.24874053 C201.87407552 116.46993518 201.87304493 131.69108159 201.86621934 146.9122831 C201.86063865 160.84060345 201.88149443 174.76874016 201.91457981 188.69701757 C201.94829663 203.00213781 201.96348809 217.30717001 201.95886278 231.61233073 C201.95661688 239.64235001 201.96187961 247.67219934 201.98675537 255.70218468 C202.00774201 262.53474161 202.01138639 269.36703528 201.99245578 276.19960292 C201.9832834 279.68593806 201.98220011 283.17178197 202.00281143 286.65807915 C202.02088373 290.43548553 202.00834215 294.2115723 201.98786926 297.98893738 C202.00038711 299.09340027 202.01290496 300.19786316 202.02580214 301.33579463 C201.93974998 308.71050414 201.93974998 308.71050414 199.05413055 312.72396564 C196.3664093 314.50793457 196.3664093 314.50793457 192.7414093 314.57043457 C188.9909964 313.38974903 188.29379889 312.80101124 186.3664093 309.50793457 C185.99085379 307.18305355 185.99085379 307.18305355 185.99002838 304.56314182 C185.98242194 303.56200999 185.97481549 302.56087815 185.96697855 301.52940899 C185.97387249 300.43165974 185.98076642 299.3339105 185.98786926 298.20289612 C185.98333913 297.03511027 185.978809 295.86732443 185.9741416 294.66415113 C185.96451509 291.42187811 185.96830242 288.17993602 185.97764659 284.93767226 C185.98443591 281.44134396 185.97391403 277.94506413 185.96536255 274.44874573 C185.95278855 268.38974558 185.95082562 262.33081679 185.95571899 256.27180672 C185.9625213 247.50603094 185.95001988 238.74036296 185.93221182 229.97460645 C185.90355262 215.74589307 185.88604642 201.51719132 185.87763977 187.28845215 C185.87713259 186.43670988 185.87662541 185.58496762 185.87610286 184.70741498 C185.87257574 178.66175499 185.86944644 172.61609482 185.8664093 166.57043457 C185.86294059 159.66621891 185.85929148 152.7620034 185.85517883 145.85778809 C185.85467622 145.00738526 185.8541736 144.15698244 185.85365576 143.28080983 C185.84491515 129.10689122 185.82448581 114.9330126 185.79569674 100.75912088 C185.77850453 92.01431675 185.77193738 83.26962568 185.77900279 74.52480685 C185.78317826 68.53411804 185.77684483 62.54350057 185.76220405 56.55282838 C185.7541362 53.09499188 185.75105142 49.63733221 185.76102638 46.17949677 C185.76936675 42.43281345 185.75946415 38.68661076 185.74494934 34.93995667 C185.75184328 33.84443814 185.75873721 32.74891961 185.76584005 31.62020355 C185.83204871 24.50965678 185.83204871 24.50965678 182.3664093 18.50793457 C178.91492025 15.90596127 175.03765448 16.22895423 170.88899231 16.25637817 C169.75491338 16.25192297 169.75491338 16.25192297 168.59792376 16.24737775 C166.06299304 16.23973542 163.52829386 16.24623265 160.99336243 16.25256348 C159.17662397 16.24981374 157.35988672 16.24613395 155.54315186 16.24159241 C151.63025285 16.23347809 147.717411 16.23131251 143.80450439 16.23353958 C137.61972878 16.23636972 131.43506768 16.22203255 125.25032043 16.20455933 C107.66322036 16.15750164 90.07612811 16.13358463 72.4889679 16.1270752 C62.77630979 16.12332853 53.06378122 16.10533195 43.35117865 16.07198083 C37.20044279 16.05172676 31.05004008 16.04941594 24.89928436 16.06026101 C21.07608555 16.06286285 17.25308189 16.04889019 13.42993355 16.03017998 C11.65457939 16.0248448 9.87918958 16.02637733 8.10384941 16.03521538 C5.68337229 16.046295 3.26422184 16.03295491 0.84382629 16.01345825 C-0.21434209 16.02714524 -0.21434209 16.02714524 -1.29388762 16.04110873 C-4.60694278 15.98904095 -6.36186544 15.71276987 -9.03842926 13.69508934 C-11.29342367 10.60322562 -11.6335907 8.30863354 -11.6335907 4.50793457 C-8.50001396 0.00787382 -5.11021006 -0.06319955 0 0 Z " fill="#000000" transform="translate(210.6335906982422,-0.5079345703125)"/>
<path d="M0 0 C1.06488647 -0.00145523 2.12977295 -0.00291046 3.22692871 -0.00440979 C5.47276553 -0.00275378 7.71861405 0.00877394 9.96435547 0.02954102 C13.39469798 0.05849624 16.82349402 0.05014248 20.25390625 0.03710938 C22.44011165 0.04334727 24.62631219 0.0517386 26.8125 0.0625 C28.34553772 0.05809654 28.34553772 0.05809654 29.9095459 0.05360413 C35.31285837 0.12490742 39.26503167 0.41134774 43.90625 3.49609375 C47.68576581 7.58205679 49.01772799 10.63675406 49.08325195 16.14770508 C49.10250481 17.5598101 49.10250481 17.5598101 49.12214661 19.0004425 C49.12953354 20.01607773 49.13692047 21.03171295 49.14453125 22.078125 C49.152603 23.12506027 49.16067474 24.17199554 49.16899109 25.25065613 C49.18282518 27.46729886 49.19355035 29.68396282 49.20141602 31.90063477 C49.2186304 35.28507972 49.26252371 38.66854822 49.30664062 42.05273438 C49.31676764 44.20702407 49.32528372 46.36132207 49.33203125 48.515625 C49.34953934 49.52518753 49.36704742 50.53475006 49.38508606 51.5749054 C49.36288701 58.78997802 48.02635709 61.87676953 43.34375 67.30859375 C40.46759901 69.68454457 37.52030613 69.62976119 33.96337891 69.65722656 C32.45633896 69.67163788 32.45633896 69.67163788 30.91885376 69.68634033 C29.83446014 69.69059021 28.75006653 69.69484009 27.6328125 69.69921875 C25.95896988 69.70776886 25.95896988 69.70776886 24.25131226 69.7164917 C21.88923084 69.72594209 19.52713624 69.73247583 17.16503906 69.73632812 C13.55250049 69.74603664 9.94053009 69.77706157 6.328125 69.80859375 C4.03385755 69.81512356 1.73958602 69.82037412 -0.5546875 69.82421875 C-2.17520523 69.84273895 -2.17520523 69.84273895 -3.82846069 69.8616333 C-13.562482 69.83273832 -13.562482 69.83273832 -17.09375 66.49609375 C-21.57473343 60.62176254 -21.6825473 55.53184779 -21.625 48.3046875 C-21.6288269 47.24121597 -21.63265381 46.17774445 -21.63659668 45.08204651 C-21.63930934 42.84220427 -21.63199366 40.60233001 -21.61523438 38.36254883 C-21.59379546 34.94084934 -21.61507024 31.52124445 -21.640625 28.09960938 C-21.63798203 25.91796413 -21.63285768 23.73632019 -21.625 21.5546875 C-21.63309692 20.53579941 -21.64119385 19.51691132 -21.64953613 18.46714783 C-21.5731496 12.6635104 -21.1796095 8.96063643 -17.09375 4.49609375 C-11.81712813 -0.34164943 -6.7922485 -0.07465958 0 0 Z " fill="#010203" transform="translate(185.09375,95.50390625)"/>
<path d="M0 0 C1.11306519 -0.00145523 2.22613037 -0.00291046 3.3729248 -0.00440979 C5.72308981 -0.00275193 8.07326581 0.00879655 10.42333984 0.02954102 C14.01837331 0.05849006 17.61193139 0.05014758 21.20703125 0.03710938 C23.49219466 0.04334714 25.77735342 0.05173837 28.0625 0.0625 C29.13657104 0.05956436 30.21064209 0.05662872 31.31726074 0.05360413 C40.61410417 0.17099369 40.61410417 0.17099369 44.53125 3.49609375 C48.01771075 7.46678515 49.64918911 9.78251332 49.69238281 15.03417969 C49.70199036 15.97565857 49.7115979 16.91713745 49.72149658 17.887146 C49.72574646 18.9079425 49.72999634 19.92873901 49.734375 20.98046875 C49.74007507 22.02881897 49.74577515 23.07716919 49.75164795 24.1572876 C49.76110734 26.37991321 49.76763564 28.6025529 49.77148438 30.82519531 C49.7811708 34.21835005 49.81217792 37.61089426 49.84375 41.00390625 C49.85028189 43.16275682 49.85553163 45.32161172 49.859375 47.48046875 C49.8717218 48.49316833 49.8840686 49.50586792 49.89678955 50.54925537 C49.87979126 55.95322718 49.62353621 59.85304909 46.53125 64.49609375 C42.44307293 68.27765754 39.39490476 69.61174315 33.87963867 69.65722656 C32.46753365 69.67163788 32.46753365 69.67163788 31.02690125 69.68634033 C29.50344841 69.69271515 29.50344841 69.69271515 27.94921875 69.69921875 C26.90228348 69.70491882 25.85534821 69.7106189 24.77668762 69.7164917 C22.56003836 69.72594141 20.34337504 69.73247557 18.12670898 69.73632812 C14.7424251 69.74602591 11.35875051 69.77704688 7.97460938 69.80859375 C5.8203161 69.81512473 3.66601849 69.82037483 1.51171875 69.82421875 C0.50215622 69.83656555 -0.50740631 69.84891235 -1.54756165 69.8616333 C-6.94147498 69.84460906 -10.83614121 69.58603323 -15.46875 66.49609375 C-19.03749956 62.54153343 -20.58449514 60.14263169 -20.64575195 54.86621094 C-20.65858719 53.9047113 -20.67142242 52.94321167 -20.68464661 51.95257568 C-20.69203354 50.9099054 -20.69942047 49.86723511 -20.70703125 48.79296875 C-20.715103 47.72242249 -20.72317474 46.65187622 -20.73149109 45.54888916 C-20.74533978 43.27919132 -20.75605841 41.00947258 -20.76391602 38.73974609 C-20.78111149 35.27401025 -20.82498964 31.80923242 -20.86914062 28.34375 C-20.87926891 26.13932994 -20.88778459 23.93490176 -20.89453125 21.73046875 C-20.91203934 20.69589539 -20.92954742 19.66132202 -20.94758606 18.59539795 C-20.92991368 12.71113506 -20.5651162 9.0619036 -16.46875 4.49609375 C-15.79779297 3.72257568 -15.12683594 2.94905762 -14.43554688 2.15209961 C-9.78044987 -0.44628115 -5.24270736 -0.05483479 0 0 Z " fill="#020203" transform="translate(184.46875,184.50390625)"/>
<path d="M0 0 C1.59732971 -0.00430527 1.59732971 -0.00430527 3.22692871 -0.00869751 C5.47274306 -0.01073407 7.7185753 -0.00523283 9.96435547 0.00732422 C13.39461064 0.02338301 16.82368757 0.00746097 20.25390625 -0.01171875 C22.44010676 -0.00973625 24.62630653 -0.00589243 26.8125 0 C28.34553772 -0.00910904 28.34553772 -0.00910904 29.9095459 -0.0184021 C35.26377225 0.03427401 39.41838448 0.15082053 43.90625 3.3984375 C48.8285629 8.61684867 48.49027694 13.89194264 48.4375 20.67578125 C48.44324036 22.30284752 48.44324036 22.30284752 48.44909668 23.96278381 C48.45181262 26.25148448 48.44447386 28.54021636 48.42773438 30.82885742 C48.40634237 34.32085857 48.42753764 37.8107974 48.453125 41.30273438 C48.45048126 43.53125452 48.44535534 45.75977338 48.4375 47.98828125 C48.44559692 49.02701889 48.45369385 50.06575653 48.46203613 51.13597107 C48.3815333 57.40030661 47.83324859 61.41067439 43.90625 66.3984375 C38.67884222 70.32551756 32.86455143 69.84966591 26.59375 69.83203125 C25.50666748 69.8372731 24.41958496 69.84251495 23.29956055 69.84791565 C21.00668185 69.8543243 18.71377022 69.85301389 16.42089844 69.84448242 C12.91802363 69.83596612 9.41677666 69.86476224 5.9140625 69.89648438 C3.68229215 69.8980964 1.45051893 69.89751882 -0.78125 69.89453125 C-1.82514893 69.90576523 -2.86904785 69.91699921 -3.94458008 69.92857361 C-9.77612736 69.87282102 -13.65581013 69.59220332 -18.09375 65.3984375 C-21.96026003 60.07758025 -21.54511308 54.40462637 -21.52734375 48.0859375 C-21.5325856 46.99885498 -21.53782745 45.91177246 -21.54322815 44.79174805 C-21.5496368 42.49886935 -21.54832639 40.20595772 -21.53979492 37.91308594 C-21.53127862 34.41021113 -21.56007474 30.90896416 -21.59179688 27.40625 C-21.5934089 25.17447965 -21.59283132 22.94270643 -21.58984375 20.7109375 C-21.60107773 19.66703857 -21.61231171 18.62313965 -21.62388611 17.54760742 C-21.56813352 11.71606014 -21.28751582 7.83637737 -17.09375 3.3984375 C-11.80531318 -0.42850809 -6.27121973 -0.03726248 0 0 Z " fill="#020303" transform="translate(263.09375,184.6015625)"/>
<path d="M0 0 C8.6260303 6.34178534 14.83602117 14.34818188 17 25 C18.01413399 35.02432443 15.01642649 44.01391008 9 52 C2.56456252 59.28220557 -4.87089725 64.23803148 -14.66796875 65.28515625 C-25.72815701 65.64394938 -34.72517521 62.40013693 -43 55 C-50.12051793 46.90241852 -53.65329662 38.55517889 -53.27734375 27.7578125 C-52.28074888 17.84800996 -48.1378461 9.46159669 -40.56640625 2.88671875 C-29.17155732 -5.49031631 -12.46043779 -7.63704252 0 0 Z " fill="#020304" transform="translate(217,277)"/>
<path d="M0 0 C1.79893562 1.05776433 3.5748395 2.15683106 5.3125 3.3125 C5.92480469 3.69535156 6.53710938 4.07820313 7.16796875 4.47265625 C13.01816553 8.66855574 17.15550136 16.55456389 19.3125 23.3125 C20.29223428 33.91869317 19.94218011 43.26843944 13.25390625 52 C6.34533815 60.01533702 -0.71995832 65.23612139 -11.34765625 66.671875 C-15.65506402 66.90025008 -17.88406875 66.92908677 -21.375 64.25 C-23.09303017 60.40488485 -22.87646834 58.32526815 -21.6875 54.3125 C-18.86842315 51.66256776 -16.59729937 50.89968402 -12.8125 50.375 C-6.51394301 49.2188772 -2.59052276 46.90727518 1.1875 41.6875 C3.92285088 36.94916639 4.09049482 32.65356557 3.3125 27.3125 C1.59659986 21.25638185 -1.57660153 17.77397214 -6.6875 14.3125 C-12.20776444 12.47241185 -18.66075868 12.15465134 -24.1484375 14.25390625 C-29.20290301 17.25088487 -31.92473294 20.50831771 -33.49609375 26.28515625 C-33.9157704 28.34704589 -34.33243213 30.40955145 -34.74609375 32.47265625 C-35.83080844 35.74480388 -36.96323659 37.22423191 -39.6875 39.3125 C-43.25 39.3125 -43.25 39.3125 -46.6875 38.3125 C-49.3911424 35.47651147 -50.18251497 33.32523409 -50.3125 29.4375 C-50.06677723 21.1052642 -46.07480415 13.28567982 -40.72265625 7.0078125 C-29.82183739 -3.05116094 -13.59941706 -6.66303097 0 0 Z " fill="#020304" transform="translate(291.6875,103.6875)"/>
<path d="M0 0 C13.2 0 26.4 0 40 0 C40 13.2 40 26.4 40 40 C26.8 40 13.6 40 0 40 C0 26.8 0 13.6 0 0 Z " fill="#F5DB59" transform="translate(179,111)"/>
<path d="M0 0 C13.2 0 26.4 0 40 0 C40 12.87 40 25.74 40 39 C26.8 39 13.6 39 0 39 C0 26.13 0 13.26 0 0 Z " fill="#F7616D" transform="translate(179,200)"/>
<path d="M0 0 C12.87 0 25.74 0 39 0 C39 12.87 39 25.74 39 39 C26.13 39 13.26 39 0 39 C0 26.13 0 13.26 0 0 Z " fill="#F1FAFF" transform="translate(257,200)"/>
<path d="M0 0 C5.89681569 2.6575591 9.70212107 7.18598913 12.95703125 12.66015625 C14.69709559 20.14243289 13.99115045 26.31575052 10.28515625 33.078125 C6.98281578 37.4787209 2.42527332 39.92603522 -2.41796875 42.34765625 C-9.55184124 43.12670629 -15.38490529 42.82430281 -21.51171875 38.90625 C-24.52393254 36.44339487 -26.53963284 33.73339619 -28.41796875 30.34765625 C-28.85109375 29.58453125 -29.28421875 28.82140625 -29.73046875 28.03515625 C-31.32071533 21.81873782 -31.2846246 16.29722009 -28.29296875 10.53515625 C-21.80810619 0.1373313 -11.86031125 -3.19979318 0 0 Z " fill="#010101" transform="translate(264.41796875,437.65234375)"/>
<path d="M0 0 C4.76644257 3.54712005 9.71975989 7.90207133 10.6875 14 C11.45318639 20.43176569 10.92364895 24.98871864 7.11328125 30.3125 C2.57740093 35.68099397 -2.21676545 37.6135029 -8.9375 38.875 C-12.10336966 39.52819108 -13.06114556 39.74102876 -15.375 42.125 C-15.684375 42.74375 -15.99375 43.3625 -16.3125 44 C-21.72557486 43.66168282 -25.4845747 40.58145929 -29.3125 37 C-34.46079887 30.68879126 -34.46079887 30.68879126 -34.12109375 26.8203125 C-33.85425781 26.21960938 -33.58742187 25.61890625 -33.3125 25 C-32.3225 24.67 -31.3325 24.34 -30.3125 24 C-29.32313085 20.70461073 -28.61497218 17.44663257 -27.93945312 14.078125 C-26.59707012 7.96719314 -24.3530221 4.57290245 -19.3125 0.6875 C-13.41497 -2.44596087 -6.2179624 -1.87712073 0 0 Z " fill="#F7969C" transform="translate(285.3125,117)"/>
<path d="M0 0 C4.86982868 3.02814802 8.74626691 7.72725512 10.1484375 13.3359375 C10.85448521 19.45501767 9.35382951 24.18106731 6.1484375 29.3359375 C1.53443857 34.47475148 -3.23179934 37.31128662 -10.1640625 37.7734375 C-16.11600584 37.6248865 -20.2404631 34.92715544 -24.390625 30.80859375 C-28.8826021 25.64676041 -30.37968866 21.68828152 -30.23046875 14.93359375 C-29.40586172 9.28036002 -26.03094803 5.17474381 -21.8515625 1.4609375 C-14.51350317 -3.73685453 -8.04297774 -3.87051147 0 0 Z " fill="#DBD8DD" transform="translate(208.8515625,289.6640625)"/>
<path d="M0 0 C0.73714737 -0.00619858 1.47429474 -0.01239716 2.23377991 -0.01878357 C3.78954755 -0.02587268 5.3453912 -0.02272341 6.90112305 -0.01000977 C9.274704 0.00384524 11.64433083 -0.03020427 14.01757812 -0.06835938 C15.53255304 -0.06931078 17.04753287 -0.06745057 18.5625 -0.0625 C19.26785385 -0.07575821 19.9732077 -0.08901642 20.69993591 -0.10267639 C24.55271835 -0.03032681 26.25147954 0.49183131 29.33032227 2.87915039 C31.34765625 5.56640625 31.34765625 5.56640625 31.41015625 9.19140625 C30.21270304 12.99508116 29.76509198 13.70319872 26.34765625 15.56640625 C23.7042746 15.87054951 21.30220535 16.01091617 18.66015625 16 C17.55087769 16.00786278 17.55087769 16.00786278 16.41918945 16.0158844 C14.85922499 16.02229372 13.29921212 16.02098167 11.73925781 16.01245117 C9.35524394 16.00393336 6.97362148 16.03272517 4.58984375 16.06445312 C3.0716153 16.06606515 1.55338262 16.06548758 0.03515625 16.0625 C-0.67535889 16.07373398 -1.38587402 16.08496796 -2.11791992 16.09654236 C-5.49748207 16.04904595 -7.35396352 15.78718739 -10.1015625 13.75415039 C-12.37192879 10.55126117 -12.19911505 8.39380533 -11.65234375 4.56640625 C-8.48119068 0.10804721 -5.1267312 -0.03594671 0 0 Z " fill="#010304" transform="translate(302.65234375,362.43359375)"/>
<path d="M0 0 C1.0759845 0.00137466 1.0759845 0.00137466 2.17370605 0.0027771 C3.68667234 0.0088051 5.19962714 0.02452737 6.71240234 0.04931641 C9.0235611 0.08581607 11.33311436 0.09033565 13.64453125 0.08984375 C15.1172013 0.09967624 16.58986053 0.11133382 18.0625 0.125 C18.75114136 0.12722565 19.43978271 0.12945129 20.14929199 0.13174438 C23.74038399 0.2025139 26.53164177 0.38562716 29.53125 2.4609375 C31.07711876 5.55267502 30.82484521 8.05523302 30.53125 11.4609375 C28.9921875 13.65429688 28.9921875 13.65429688 26.53125 15.4609375 C23.82930042 15.859167 21.54210428 16.02293754 18.84375 15.9921875 C18.10423096 15.9960144 17.36471191 15.99984131 16.6027832 16.00378418 C15.0427921 16.00650021 13.48275522 15.99916042 11.92285156 15.98242188 C9.53867814 15.96100423 7.15751751 15.98223013 4.7734375 16.0078125 C3.2552017 16.00516916 1.73696777 16.00004406 0.21875 15.9921875 C-0.84702271 16.00433289 -0.84702271 16.00433289 -1.93432617 16.01672363 C-5.31016257 15.95295557 -7.17493866 15.67860157 -9.91796875 13.64648438 C-12.18943869 10.44525658 -12.01538065 8.28735206 -11.46875 4.4609375 C-8.31224465 0.04242112 -5.09094481 -0.10624127 0 0 Z " fill="#010303" transform="translate(246.46875,362.5390625)"/>
<path d="M0 0 C1.07242699 -0.00574036 1.07242699 -0.00574036 2.16651917 -0.01159668 C3.67523612 -0.01431259 5.18400042 -0.00697364 6.69262695 0.00976562 C8.9934272 0.03115259 11.29109438 0.00997392 13.59179688 -0.015625 C15.06120477 -0.01298105 16.53061072 -0.00785466 18 0 C18.68348007 -0.00809692 19.36696014 -0.01619385 20.07115173 -0.02453613 C23.55461131 0.04330746 25.51700701 0.50073931 28.50415039 2.34570312 C30.56640625 4.53125 30.56640625 4.53125 31.12890625 8.03125 C30.46760224 12.1460305 29.87079598 13.08231979 26.56640625 15.53125 C23.86333133 15.91743041 21.57646257 16.0699949 18.87890625 16.02734375 C18.13938721 16.02879898 17.39986816 16.03025421 16.63793945 16.03175354 C15.07792207 16.03009714 13.51788791 16.01856465 11.95800781 15.99780273 C9.5741616 15.96884421 7.19254028 15.97719794 4.80859375 15.99023438 C3.29035381 15.98399649 1.77212087 15.97560514 0.25390625 15.96484375 C-0.45660889 15.96777939 -1.16712402 15.97071503 -1.89916992 15.97373962 C-4.95005119 15.91576459 -7.16050351 15.67408338 -9.8828125 14.25024414 C-12.01705367 11.88450231 -11.91711706 9.66267508 -11.96484375 6.56640625 C-10.35991242 0.41810312 -5.53684689 -0.06539919 0 0 Z " fill="#010303" transform="translate(189.43359375,362.46875)"/>
<path d="M0 0 C2.94365036 0.08013567 3.75101278 0.11218266 6.0625 2.0625 C7.26112599 4.8343226 7.58508446 6.38880309 7.0625 9.375 C5.4375 11.6875 5.4375 11.6875 3.0625 13.375 C-0.59602292 13.98475382 -2.24262879 13.82043026 -5.375 11.8125 C-6.9375 9.375 -6.9375 9.375 -6.8125 5.75 C-5.56632018 0.94330641 -4.9976319 0.47596494 0 0 Z " fill="#645961" transform="translate(255.9375,451.625)"/>
</svg>
